<?xml version="1.0" encoding="iso-8859-1"?>
<!-- Generator: Adobe Illustrator 19.0.0, SVG Export Plug-In . SVG Version: 6.00 Build 0)  -->
<svg version="1.1" id="Capa_1" xmlns="http://www.w3.org/2000/svg" xmlns:xlink="http://www.w3.org/1999/xlink" x="0px" y="0px"
	 viewBox="0 0 462.08 462.08" style="enable-background:new 0 0 462.08 462.08;" xml:space="preserve">
<g>
	<g>
		<g>
			<circle style="fill:#00ACEA;" cx="356.428" cy="384.235" r="18.808"/>
			<circle style="fill:#00ACEA;" cx="411.285" cy="406.178" r="18.808"/>
			<circle style="fill:#00ACEA;" cx="413.375" cy="342.961" r="18.808"/>
			<circle style="fill:#00ACEA;" cx="413.375" cy="273.998" r="18.808"/>
			<circle style="fill:#00ACEA;" cx="356.428" cy="306.39" r="18.808"/>
			<circle style="fill:#00ACEA;" cx="307.84" cy="342.961" r="18.808"/>
		</g>
		<circle style="fill:#00CEB4;" cx="161.554" cy="183.615" r="20.376"/>
		<path style="fill:#00EFD1;" d="M302.616,257.802c3.042,5.548,1.474,12.493-3.657,16.196l-43.363,28.212
			c0,107.624-63.216,97.698-96.131,106.057c-9.749,2.579-16.585,11.337-16.718,21.42v24.555H29.897V14.341
			c208.457-39.184,222.041,104.49,222.041,146.286c-0.2,7.711,1.793,15.32,5.747,21.943L302.616,257.802z M181.93,183.615
			c0-11.253-9.122-20.375-20.376-20.375c-11.253,0-20.376,9.122-20.376,20.376c0,11.253,9.122,20.375,20.376,20.375
			c10.961,0.292,20.083-8.356,20.376-19.316C181.939,184.321,181.939,183.968,181.93,183.615z"/>
	</g>
	<g>
		<path style="fill:#083863;" d="M142.746,462.08H29.897c-4.328,0-7.837-3.509-7.837-7.837V14.341
			c-0.038-3.664,2.642-6.791,6.269-7.314c78.89-15.151,138.971-5.747,179.2,27.69s52.245,95.086,52.245,125.91
			c-0.193,6.417,1.438,12.757,4.702,18.286l44.931,75.233c5.182,9.044,2.702,20.541-5.747,26.645l-40.229,26.122
			c-1.567,93.518-52.245,101.355-86.204,106.057l-15.673,3.135c-6.255,1.609-10.714,7.13-10.971,13.584v24.555
			C150.583,458.571,147.074,462.08,142.746,462.08z M37.734,446.406h97.176v-16.718c0.24-13.517,9.405-25.24,22.465-28.735
			c5.865-1.342,11.793-2.389,17.763-3.135c33.959-5.224,72.62-10.971,72.62-95.608c0.12-2.562,1.485-4.904,3.657-6.269
			l43.363-28.212c1.64-1.441,2.073-3.821,1.045-5.747l0,0l-44.931-75.233c-4.74-7.868-7.099-16.942-6.792-26.122
			c0-28.212-6.269-80.457-46.498-113.894s-88.816-38.139-159.869-25.6V446.406z"/>
		<path style="fill:#083863;" d="M161.554,211.827c-15.581,0-28.212-12.631-28.212-28.212l0,0c0-15.581,12.631-28.212,28.212-28.212
			s28.212,12.631,28.212,28.212c0.291,15.29-11.867,27.921-27.157,28.212C162.258,211.833,161.906,211.833,161.554,211.827z
			 M161.554,171.076c-6.925,0-12.539,5.614-12.539,12.539v0c0,6.925,5.614,12.539,12.539,12.539h0
			c6.63,0.295,12.244-4.84,12.539-11.47c0.016-0.356,0.016-0.713,0-1.069C174.093,176.69,168.479,171.076,161.554,171.076
			L161.554,171.076z"/>
		<path style="fill:#083863;" d="M307.84,369.606c-14.716,0-26.645-11.929-26.645-26.645c0-14.716,11.929-26.645,26.645-26.645
			s26.645,11.929,26.645,26.645C334.485,357.677,322.556,369.606,307.84,369.606L307.84,369.606z M307.84,331.99
			c-6.059,0-10.971,4.912-10.971,10.971s4.912,10.971,10.971,10.971s10.971-4.912,10.971-10.971S313.899,331.99,307.84,331.99
			L307.84,331.99z"/>
		<path style="fill:#083863;" d="M413.375,369.606c-14.716,0-26.645-11.929-26.645-26.645c-0.011-14.716,11.91-26.654,26.625-26.664
			c14.716-0.011,26.654,11.91,26.664,26.625c0,0.013,0,0.026,0,0.039C440.02,357.677,428.09,369.606,413.375,369.606z
			 M413.375,331.99c-6.059,0-10.971,4.912-10.971,10.971c-0.007,6.059,4.9,10.977,10.959,10.984s10.977-4.9,10.984-10.959
			c0-0.008,0-0.017,0-0.025C424.346,336.902,419.434,331.99,413.375,331.99z"/>
		<path style="fill:#083863;" d="M356.428,410.88c-14.716,0-26.645-11.929-26.645-26.645c0.011-14.716,11.949-26.636,26.664-26.625
			c14.7,0.011,26.615,11.925,26.625,26.625C383.073,398.951,371.143,410.88,356.428,410.88z M356.428,373.264
			c-6.059,0-10.971,4.912-10.971,10.971c0.007,6.059,4.925,10.966,10.984,10.959c6.05-0.007,10.952-4.909,10.959-10.959
			C367.399,378.176,362.487,373.264,356.428,373.264C356.428,373.264,356.428,373.264,356.428,373.264L356.428,373.264z"/>
		<path style="fill:#083863;" d="M411.285,432.823c-14.716,0-26.645-11.929-26.645-26.645c0.011-14.716,11.949-26.636,26.664-26.625
			c14.7,0.011,26.615,11.925,26.625,26.625C437.93,420.893,426.001,432.823,411.285,432.823z M411.285,395.206
			c-6.059,0-10.971,4.912-10.971,10.971c0.007,6.059,4.925,10.966,10.984,10.959c6.05-0.007,10.952-4.909,10.959-10.959
			C422.256,400.118,417.344,395.206,411.285,395.206z"/>
		<path style="fill:#083863;" d="M356.428,333.035c-14.716,0-26.645-11.929-26.645-26.645c-0.011-14.716,11.91-26.654,26.625-26.664
			c14.716-0.011,26.654,11.91,26.664,26.625c0,0.013,0,0.026,0,0.039C383.073,321.106,371.143,333.035,356.428,333.035z
			 M356.428,295.419c-6.059,0-10.971,4.912-10.971,10.971c0.007,6.059,4.925,10.966,10.984,10.959
			c6.05-0.007,10.952-4.909,10.959-10.959C367.399,300.331,362.487,295.419,356.428,295.419z"/>
		<path style="fill:#083863;" d="M413.375,300.643c-14.716,0-26.645-11.929-26.645-26.645c-0.011-14.716,11.91-26.654,26.625-26.664
			c14.716-0.011,26.654,11.91,26.664,26.625c0,0.013,0,0.026,0,0.039C440.02,288.714,428.09,300.643,413.375,300.643z
			 M413.375,263.027c-6.059,0-10.971,4.912-10.971,10.971c-0.007,6.059,4.9,10.977,10.959,10.984s10.977-4.9,10.984-10.959
			c0-0.008,0-0.017,0-0.025C424.346,267.939,419.434,263.027,413.375,263.027z"/>
	</g>
</g>
<g>
</g>
<g>
</g>
<g>
</g>
<g>
</g>
<g>
</g>
<g>
</g>
<g>
</g>
<g>
</g>
<g>
</g>
<g>
</g>
<g>
</g>
<g>
</g>
<g>
</g>
<g>
</g>
<g>
</g>
</svg>
