<?xml version="1.0" encoding="iso-8859-1"?>
<!-- Generator: Adobe Illustrator 19.0.0, SVG Export Plug-In . SVG Version: 6.00 Build 0)  -->
<svg version="1.1" id="Capa_1" xmlns="http://www.w3.org/2000/svg" xmlns:xlink="http://www.w3.org/1999/xlink" x="0px" y="0px"
	 viewBox="0 0 433.71 433.71" style="enable-background:new 0 0 433.71 433.71;" xml:space="preserve">
<path style="fill:#083863;" d="M227.8,405.981c-2,0.2-3.9-0.6-5.2-2.1l-120.2-110.2c-3.2-2.5-3.7-7.1-1.2-10.3
	c0.2-0.2,0.4-0.5,0.6-0.7c2.5-3.2,7.1-3.7,10.3-1.2c0.2,0.2,0.5,0.4,0.7,0.6l114.4,105l158.9-159.2c20.3-20.2,31.7-47.6,31.9-76.3
	c-0.2-59.7-48.8-108-108.5-107.8c-28.5,0.1-55.7,11.4-75.9,31.5h-0.5c-1.2,1.7-3.2,2.7-5.2,2.6c-2.1-0.1-4.1-0.9-5.7-2.1h-0.5
	c-41.5-42.1-109.3-42.6-151.5-1.1c-0.4,0.4-0.7,0.7-1.1,1.1c-24.9,24.9-36,60.4-29.8,95.1c0.6,4.2-2.1,8.1-6.3,8.9
	c-4.3,0.7-8.4-2.1-9.4-6.3c-12.3-67.3,32.4-131.7,99.7-143.8c37.5-6.8,76,4.1,104.5,29.5c52.3-44.1,134.5-40.5,178.6,11.8
	c40.6,48.2,34.5,122.1-8.8,167.9l-164.6,165C231.6,405.381,229.7,406.081,227.8,405.981z"/>
<path style="fill:#00EFD1;" d="M210.5,299.381h-1c-2.8-0.2-5.3-2.1-6.3-4.7l-57.5-138.4l-29.3,79.9c-1.1,3.1-4,5.2-7.3,5.2H7.8
	c-4.3,0-7.8-3.5-7.8-7.8s3.5-7.8,7.8-7.8h95.6l34.5-93.5c0.9-3,3.6-5.1,6.8-5.2c3.3-0.1,6.4,1.7,7.8,4.7l60.1,144.7l40.2-47.6
	c1.3-2,3.4-3.1,5.7-3.1h31.3c4.3,0,7.8,3.5,7.8,7.8s-3.5,7.8-7.8,7.8h-27.7l-46,55.4C214.8,298.381,212.7,299.381,210.5,299.381z"/>
<g>
</g>
<g>
</g>
<g>
</g>
<g>
</g>
<g>
</g>
<g>
</g>
<g>
</g>
<g>
</g>
<g>
</g>
<g>
</g>
<g>
</g>
<g>
</g>
<g>
</g>
<g>
</g>
<g>
</g>
</svg>
