<?xml version="1.0" encoding="iso-8859-1"?>
<!-- Generator: Adobe Illustrator 19.0.0, SVG Export Plug-In . SVG Version: 6.00 Build 0)  -->
<svg version="1.1" id="Capa_1" xmlns="http://www.w3.org/2000/svg" xmlns:xlink="http://www.w3.org/1999/xlink" x="0px" y="0px"
	 viewBox="0 0 510.966 510.966" style="enable-background:new 0 0 510.966 510.966;" xml:space="preserve">
<g>
	<g>
		<g>
			<path style="fill:#00ACEA;" d="M473.819,288.402c6.925,9.233,5.054,22.332-4.18,29.257c-7.43,5.573-17.647,5.573-25.077,0
				L282.603,155.7l7.314-6.792l14.106-14.629l7.837-7.837L473.819,288.402z"/>
			<circle style="fill:#00ACEA;" cx="367.762" cy="349.529" r="35.004"/>
		</g>
		<path style="fill:#FFFFFF;" d="M343.207,374.084L138.929,239.815v-1.045c40.34-3.698,80.216,10.872,108.669,39.706
			L343.207,374.084z"/>
		<path style="fill:#00EFD1;" d="M304.023,134.28l-14.106,14.629l-15.151-12.539c-14.126-11.815-34.079-13.686-50.155-4.702
			l-47.02-47.543c-21.063-20.555-21.475-54.294-0.92-75.358c0.303-0.31,0.61-0.617,0.92-0.92L304.023,134.28z"/>
		<path style="fill:#00ACEA;" d="M273.721,444.092c13.37,13.561,13.214,35.393-0.347,48.763
			c-13.561,13.37-35.393,13.214-48.763-0.347c-13.235-13.425-13.235-34.991,0-48.416c13.37-13.561,35.202-13.717,48.763-0.347
			C273.49,443.86,273.606,443.976,273.721,444.092z"/>
		<g>
			<path style="fill:#FFFFFF;" d="M138.929,239.815l134.792,204.278l-96.131-96.131c-28.644-28.548-43.017-68.411-39.184-108.669
				L138.929,239.815z"/>
			<path style="fill:#FFFFFF;" d="M67.354,131.668l77.322,76.8c-3.387,9.788-5.494,19.973-6.269,30.302L67.354,131.668z"/>
			<path style="fill:#FFFFFF;" d="M138.407,238.77v1.045h-0.522L138.407,238.77z"/>
			<path style="fill:#FFFFFF;" d="M30.782,168.239l107.102,70.531c-10.341,1.01-20.519,3.291-30.302,6.792L30.782,168.239z"/>
		</g>
	</g>
	<g>
		<path style="fill:#083863;" d="M398.064,319.749h-0.522c-16.461-16.591-43.256-16.696-59.847-0.235
			c-0.079,0.078-0.157,0.156-0.235,0.235c-6.858,6.878-11.107,15.93-12.016,25.6l-72.62-72.62
			c-27.862-28.018-66.034-43.325-105.535-42.318c1.072-6.554,2.644-13.017,4.702-19.331c0.904-2.958,0.1-6.174-2.09-8.359
			l-76.8-76.8c-3.462-2.597-8.375-1.895-10.971,1.567c-2.09,2.786-2.09,6.618,0,9.404l73.665,73.665
			c-2.119,7.008-3.691,14.169-4.702,21.42c-7.229,0.889-14.387,2.285-21.42,4.18l-73.143-73.143c-3.224-3.052-8.27-3.052-11.494,0
			c-2.529,3.22-2.529,7.751,0,10.971l77.322,76.8c1.357,1.419,3.263,2.181,5.224,2.09h2.612l19.853-5.224
			c-1.396,39.468,13.755,77.725,41.796,105.535l72.62,73.143c-9.694,0.821-18.775,5.083-25.6,12.016
			c-16.448,17.008-15.995,44.129,1.013,60.578c7.867,7.608,18.346,11.917,29.289,12.043c11.206-0.018,21.935-4.536,29.78-12.539
			c8.239-7.899,12.787-18.891,12.539-30.302c-0.022-8.393-2.571-16.586-7.314-23.51l10.971-10.971c3.052-3.224,3.052-8.27,0-11.494
			c-3.22-2.529-7.751-2.529-10.971,0l-10.449,10.449l-90.384-90.384c-25.532-25.306-39.193-60.217-37.616-96.131
			c35.713-1.299,70.355,12.331,95.608,37.616l90.906,90.384l-10.449,10.449c-3.052,3.224-3.052,8.27,0,11.494
			c3.146,2.736,7.826,2.736,10.971,0l10.971-10.971c7.153,4.674,15.489,7.211,24.033,7.314c11.364,0.005,22.264-4.506,30.302-12.539
			C414.186,363.048,414.186,336.532,398.064,319.749z M267.974,487.456c-10.576,10.423-27.562,10.423-38.139,0
			c-4.822-5.102-7.61-11.792-7.837-18.808c0.153-6.878,2.962-13.431,7.837-18.286c5.25-4.802,12.231-7.255,19.331-6.792l0,0
			c14.13-0.502,25.991,10.546,26.492,24.676C275.914,475.445,273.124,482.418,267.974,487.456L267.974,487.456z M386.57,368.86
			c-11.814,9.249-28.889,7.171-38.139-4.644c-7.702-9.837-7.702-23.658,0-33.495c5.234-4.941,12.133-7.738,19.331-7.837
			c7.06,0.017,13.825,2.836,18.808,7.837c10.683,10.535,11.074,27.462,0.539,38.145C387.02,368.956,386.93,369.045,386.57,368.86z"
			/>
		<path style="fill:#083863;" d="M479.566,282.656L317.607,120.696c-2.672-3.03-7.294-3.32-10.324-0.648
			c-0.229,0.202-0.446,0.419-0.648,0.648l-2.612,2.612L182.815,2.1c-1.357-1.419-3.263-2.181-5.224-2.09
			c-2.12-0.11-4.193,0.644-5.747,2.09c-23.895,24.378-23.895,63.393,0,87.771l47.02,47.02c2.42,2.588,6.276,3.231,9.404,1.567
			c13.22-7.295,29.542-5.848,41.273,3.657l8.359,7.314l-1.045,1.045c-1.319,1.423-2.064,3.284-2.09,5.224
			c0.138,2.075,0.863,4.068,2.09,5.747l161.959,161.959c5.474,5.288,12.765,8.279,20.376,8.359
			c7.633,0.03,14.963-2.977,20.376-8.359C490.581,312.056,490.581,294.006,479.566,282.656z M279.468,130.1
			c-14.894-12.385-35.461-15.41-53.29-7.837L182.815,78.9c-15.764-16.047-17.954-41.012-5.224-59.559L293.051,134.28l-3.657,3.657
			L279.468,130.1z M468.594,312.435c-5.183,4.717-13.103,4.717-18.286,0L293.574,155.7l18.286-18.286l156.735,156.212
			C473.384,298.982,473.384,307.08,468.594,312.435z"/>
	</g>
</g>
<g>
</g>
<g>
</g>
<g>
</g>
<g>
</g>
<g>
</g>
<g>
</g>
<g>
</g>
<g>
</g>
<g>
</g>
<g>
</g>
<g>
</g>
<g>
</g>
<g>
</g>
<g>
</g>
<g>
</g>
</svg>
