<?xml version="1.0" encoding="iso-8859-1"?>
<!-- Generator: Adobe Illustrator 19.0.0, SVG Export Plug-In . SVG Version: 6.00 Build 0)  -->
<svg version="1.1" id="Capa_1" xmlns="http://www.w3.org/2000/svg" xmlns:xlink="http://www.w3.org/1999/xlink" x="0px" y="0px"
	 viewBox="0 0 499.055 499.055" style="enable-background:new 0 0 499.055 499.055;" xml:space="preserve">
<path style="fill:#00ACEA;" d="M386.321,272.7c60.6,0,109.7,49.1,109.7,109.7s-49.1,109.7-109.7,109.7c-21.9,0-43.4-6.3-61.6-18.3
	c-30.3-20.4-48.1-54.9-48.1-91.4c0-21.4,6.3-41.8,17.8-59.6C314.221,291.6,349.221,272.7,386.321,272.7z"/>
<path style="fill:#D4E1F4;" d="M324.621,473.9l-1,2.6h-161.4V342.8l37.1-35h50.7c15.2,0,30.3,4.7,42.3,14.1l2.1,1
	c-11.5,17.8-17.8,38.1-17.8,59.6C276.621,419,294.321,453.5,324.621,473.9z M249.421,389.2c-0.5-13.6-11-24-24.6-24.6
	c-13.6,0-24.6,11-24.6,24.6c0.5,13.6,11,24,24.6,24.6c6.3,0,12.5-2.6,17.2-7.3C246.821,401.8,249.421,395.5,249.421,389.2z"/>
<path style="fill:#4B5D63;" d="M290.221,79.4h-144.8c-18.8-1-33.4-16.2-33.4-35c0-5.2,1-10.4,3.7-15.2c1.6-3.7,4.2-6.8,6.8-9.9
	c6.8-6.3,15.7-9.9,25.1-9.9h72.1c38.7-0.5,70,30.8,70.5,69.5C290.221,78.9,290.221,79.4,290.221,79.4z"/>
<path style="fill:#FFFFFF;" d="M281.321,147.9c7.8,7.8,8.4,20.9,0.5,28.7c-4.2,4.2-9.9,6.3-15.7,6.3h-1v-41.3h1
	C271.921,141.6,277.121,144.2,281.321,147.9z"/>
<path style="fill:#F7CAA5;" d="M265.121,141.6v41.3c0,43.4-26.6,82-66.9,97.2c-11.5,4.2-24,6.3-36.6,6.3c-11,0-21.9-1.6-32.4-5.2
	c-42.3-14.1-71.1-53.8-71.1-98.2v-61.6c0,0,49.6,7.8,87.2-41.8h119.6L265.121,141.6L265.121,141.6z"/>
<path style="fill:#00EFD1;" d="M242.121,372c4.7,4.7,7.3,11,7.3,17.2c0,6.3-2.6,12.5-7.3,17.2s-11,7.3-17.2,7.3
	c-13.6-0.5-24-11-24.6-24.6c0-13.6,11-24.6,24.6-24.6C231.121,364.7,237.421,367.3,242.121,372z"/>
<path style="fill:#EDB288;" d="M199.321,306.7v1l-37.1,35l-33.4-35v-26.6c10.4,3.7,21.4,5.2,32.4,5.2c12.5,0,25.1-2.1,36.6-6.3
	l1,2.1L199.321,306.7z"/>
<path style="fill:#D4E1F4;" d="M82.221,307.7h46.5l33.4,35v133.7H7.021v-98.2c0-39.2,31.3-70.5,70.5-70.5h0.5L82.221,307.7
	L82.221,307.7z"/>
<path style="fill:#4B5D63;" d="M145.421,79.4L145.421,79.4c-37.6,49.6-87.2,41.8-87.2,41.8V81.5c0-1.6,0.5-2.6,0.5-4.2
	c2.1-9.9,13.1-49.1,56.9-48.1c-2.6,4.7-3.7,9.9-3.7,15.2C112.021,63.2,126.621,78.4,145.421,79.4z"/>
<g>
	<path style="fill:#EDB288;" d="M58.221,141.6v41.3h-3.1c-11,0.5-19.9-8.4-20.4-19.3c0-0.5,0-0.5,0-1c0-5.2,2.1-11,5.7-14.6
		c4.2-3.7,8.9-6.3,14.6-6.3L58.221,141.6L58.221,141.6z"/>
	<path style="fill:#EDB288;" d="M264.821,141.6h3.1c5.7,0,10.4,2.6,14.6,6.3c3.7,3.7,5.7,9.4,5.7,14.6c0,0.5,0,0.5,0,1
		c-0.5,11-9.4,19.9-20.4,19.3h-3.1v-41.2H264.821z"/>
</g>
<g>
	<path style="fill:#083863;" d="M117.821,176.6c-6.8,0-13.1-2.6-18.3-7.3c-4.7-4.7-7.3-11.5-7.3-18.3v-4.2c0-4.2,3.7-7.8,7.8-7.8
		c4.2,0,7.8,3.7,7.8,7.8v4.2c0,2.6,1,5.2,3.1,7.3c4.2,3.7,10.4,3.7,14.1-0.5c1.6-2.1,2.6-4.2,2.6-6.8v-4.2c0-4.2,3.7-7.8,7.8-7.8
		s7.8,3.7,7.8,7.8v4.2C143.421,165.1,131.921,176.6,117.821,176.6L117.821,176.6z"/>
	<path style="fill:#083863;" d="M206.021,176.6c-6.8,0-13.1-2.6-18.3-7.3c-4.7-4.7-7.3-11.5-7.3-18.3v-4.2c0-4.2,3.7-7.8,7.8-7.8
		c4.2,0,7.8,3.7,7.8,7.8v4.2c0,2.6,1,5.2,3.1,7.3c4.2,3.7,10.4,3.7,14.1-0.5c1.6-2.1,2.6-4.2,2.6-6.8v-4.2c0-4.2,3.7-7.8,7.8-7.8
		c4.2,0,7.8,3.7,7.8,7.8v4.2C231.621,165.1,220.221,176.6,206.021,176.6z"/>
	<path style="fill:#083863;" d="M411.921,462.4L411.921,462.4c-4.7-0.5-8.4-2.6-10.4-6.3l-16.3-30.3l-15.2,29.3
		c-1.6,4.2-5.7,6.8-9.9,6.8c-4.2,0-8.4-2.1-11-5.7c-17.8-28.7-29.3-60.6-34-94c-1-12,3.1-23.5,11.5-31.9c8.4-8.9,19.9-13.1,31.9-12
		c5.7,0.5,9.9,5.7,14.6,11.5c4.7,5.7,15.7,21.4,34,19.3c3.7-1,7.3,1.6,8.4,5.2c0,0.5,0,1,0,1.6c0.5,4.2-2.1,7.8-6.3,8.4h-0.5
		c-26.6,3.7-40.2-14.1-48.1-25.1l-4.7-5.2c-6.8-0.5-13.6,2.1-18.3,7.3c-5.2,5.2-7.3,12-6.8,19.3c3.7,28.7,13.6,56.4,28.2,81.5
		l15.2-29.3c2.1-4.2,5.7-6.8,10.4-6.8c4.2,0,8.4,2.6,10.4,6.3l16.7,30.3c15.2-25.1,25.1-52.8,28.7-82c0.5-7.3-1.6-14.1-6.8-19.3
		c-5.2-5.2-12-7.8-19.3-7.3c-5.7,0-11,1-16.2,2.6c-4.2,1.6-8.4-1-9.9-5.2l0,0c-1-4.2,1.6-8.9,5.7-9.9l19.3-3.1
		c12-1,23.5,3.7,31.9,12c7.8,8.4,12,20.4,11,31.9c-4.7,33.4-16.2,65.8-34.5,94.6C419.721,460.3,416.121,462.4,411.921,462.4z"/>
	<path style="fill:#083863;" d="M386.321,264.9c-37.1-1.6-71.6,16.7-94,46c-12.5-8.4-27.2-12.5-42.3-13.1h-45.5v-13
		c41.8-16.7,64.3-53.3,66.9-94.6c13.1-2.6,22.5-14.1,23-27.7c0-7.8-3.1-15.2-8.4-20.4c-3.7-3.7-8.4-6.3-13.6-7.3v-46h17.8
		c4.7-0.5,7.8-4.7,7.8-9.4c0-43.4-35-78.9-78.4-79.4h-72.6c-11.5,0.5-23.1,4.6-30.3,13.1c-1.6,1.8-5.7,7.8-5.7,7.8
		c-36,1.6-55.6,28.3-58.5,54.9c-1.6,14.5,0,58.5,0,58.5c-6.3,0-13.2,2.8-17.8,7.7c-5.3,5.7-7.8,12.7-7.8,20.5
		c0,13.6,9.9,25.6,23.5,28.2c2.1,26.6,13.6,52.2,32.4,71.1c10.4,11,23.5,19.3,38.1,24.6v11.4h-42.9c-43.4,0-77.3,37.1-77.3,80.5
		v98.2c0,4.7,2.1,9.4,6.3,9.4h316.6l3.1-1.6c17.8,11,41.1,15.3,62,14.7c65.3-4.2,114-59.2,109.3-124.5
		C494.421,315.5,445.421,267.4,386.321,264.9z M53.021,174c-5.2-1.6-8.9-6.3-9.4-11.5c0-3.7,0.3-7.3,2.9-9.9c1-1,2.8-1.7,6.5-2.1
		V174L53.021,174z M275.521,153.1c2.6,2.6,3.7,5.7,3.7,9.4c0.5,4.7-2.6,9.4-6.8,11v-21.9C273.221,151.6,274.721,152.3,275.521,153.1
		z M122.521,32.4L122.521,32.4c1.6-3.1,3.1-5.7,5.7-7.8c4.7-5.2,11.5-8.4,18.8-8.9h72.6c31.9,0,58.5,26.1,62.2,57.5l-135.3-1h-1
		c-14.6-1-25.6-13.1-25.6-27.7C119.821,40.3,120.921,36.1,122.521,32.4z M105.221,37.6c0,2.6-0.5,4.7-0.5,6.8
		c0.5,17.8,11.5,33.4,27.7,39.7c-16.2,18.3-40.2,29.2-64.8,29.7c0,0,0-26.2,0-35l0,0C69.721,70,77.021,42.9,105.221,37.6z
		 M95.321,250.8c-17.2-18.3-27.2-42.8-26.6-67.9v-52.8c17.2,0,51.2-5.2,80.5-41.3h107.6v94c0,39.7-24.6,75.8-61.6,89.9
		c-20.4,7.3-42.8,7.8-63.7,1C117.821,269.1,105.221,261.2,95.321,250.8z M152.221,470.2h-135.8v-92c-0.5-32.9,24.6-60.1,57.5-62.7
		v21.9c-7.3,2.1-14.1,5.7-19.9,11c-7.3,7.4-11.5,17.3-11.5,27.8v44.4c0.5,4.2,4.2,7.8,8.4,7.8h12.5c4.2,0,7.8-3.7,7.8-7.8
		s-3.7-7.8-7.8-7.8h-5.2v-36.6c0-6.3,2.6-12.5,7.3-16.7c4.2-4.7,9.9-7.3,16.2-7.3c13.1,0.5,23.5,11,23.5,24v36.6h-6.8
		c-4.2,0-7.8,3.7-7.8,7.8s3.7,7.8,7.8,7.8h16.2c4.2,0,6.3-3.7,6.3-7.8v-44.4c0-19.3-10.4-35-31.3-38.7v-24h36l26.6,32.4V470.2z
		 M161.121,331.8l-24.6-27.7v-12.5c7.8,1.6,16.2,2.6,24,2.6c9.4,0.5,19.3-1,28.2-3.7v13.6L161.121,331.8z M167.921,470.2V346.4
		l34.5-32.9h12.5v44.4c-10.4,3.7-23.5,16.2-23.5,31.3c0,8.4,4.2,16.7,10.4,22.5c5.7,6.3,14.1,9.4,23,9.4
		c17.8,0.5,31.9-13.6,32.4-31.3v-0.5c-0.5-8.9-4.2-16.7-10.4-23c-4.7-4.2-9.9-7.3-16.2-8.4v-44.4h19.3c12,0.5,23.5,3.7,33.4,10.4
		c-9.9,18.3-15.2,38.1-15.2,59c0,32.9,13.6,64.8,38.1,87.2h-138.3V470.2z M224.921,372.5c8.9-0.5,16.2,6.8,16.7,15.7
		c0,0.5,0,0.5,0,1c0,4.2-1.6,8.4-4.7,11.5c-6.8,6.3-16.7,6.3-23.5,0c-6.8-5.7-7.3-16.2-1-23
		C215.521,374.1,220.221,372.5,224.921,372.5z M383.221,481.2c-19.9,0-39.2-5.7-55.9-16.7c-27.2-18.3-43.4-49.1-43.4-82
		c0-19.3,5.7-37.6,16.2-53.8l0,0c29.8-46,90.9-59,136.9-29.3c46,29.8,59,90.9,29.3,136.9C447.921,464.5,416.621,481.2,383.221,481.2
		z"/>
</g>
<g>
</g>
<g>
</g>
<g>
</g>
<g>
</g>
<g>
</g>
<g>
</g>
<g>
</g>
<g>
</g>
<g>
</g>
<g>
</g>
<g>
</g>
<g>
</g>
<g>
</g>
<g>
</g>
<g>
</g>
</svg>
