<?xml version="1.0" encoding="iso-8859-1"?>
<!-- Generator: Adobe Illustrator 19.0.0, SVG Export Plug-In . SVG Version: 6.00 Build 0)  -->
<svg version="1.1" id="Capa_1" xmlns="http://www.w3.org/2000/svg" xmlns:xlink="http://www.w3.org/1999/xlink" x="0px" y="0px"
	 viewBox="0 0 500.624 500.624" style="enable-background:new 0 0 500.624 500.624;" xml:space="preserve">
<g>
	<g>
		<g>
			
				<rect x="141.039" y="197.933" transform="matrix(-0.7071 0.7071 -0.7071 -0.7071 479.741 279.1765)" style="fill:#00ACEA;" width="82.025" height="82.025"/>
			<polygon style="fill:#00ACEA;" points="142.746,61.713 161.032,83.134 159.465,84.701 29.375,214.791 29.375,214.791 
				7.954,196.505 			"/>
			<polygon style="fill:#00ACEA;" points="315.154,264.423 320.379,335.477 281.195,374.138 210.665,369.436 			"/>
		</g>
		<path style="fill:#00EFD1;" d="M161.032,83.134l154.122,181.29l-104.49,104.49L29.375,214.791l0,0l130.09-130.09L161.032,83.134z
			 M181.93,296.815l57.992-57.992l-57.992-57.992l-57.992,57.992L181.93,296.815z"/>
	</g>
	<g>
		<path style="fill:#083863;" d="M312.542,414.889c-2.12,0.11-4.193-0.644-5.747-2.09c-3.052-3.224-3.052-8.27,0-11.494
			l40.751-40.751c3.22-2.529,7.751-2.529,10.971,0c3.052,3.224,3.052,8.27,0,11.494l-40.751,40.751
			C316.374,414.164,314.493,414.917,312.542,414.889z"/>
		<path style="fill:#083863;" d="M181.93,304.652c-2.075-0.138-4.068-0.863-5.747-2.09l-57.992-57.992
			c-2.813-3.315-2.813-8.179,0-11.494l57.992-57.992c3.22-2.529,7.751-2.529,10.971,0l57.992,57.992
			c3.174,2.943,3.362,7.901,0.419,11.075c-0.134,0.145-0.274,0.285-0.419,0.419l-57.992,57.992
			C185.667,303.776,183.844,304.505,181.93,304.652z M134.91,238.824l47.02,47.02l46.498-47.02l-46.498-47.02L134.91,238.824z"/>
		<path style="fill:#083863;" d="M189.767,238.824l7.837-7.837c2.597-3.462,1.895-8.375-1.567-10.971
			c-2.786-2.09-6.618-2.09-9.404,0l-7.837,7.837l-7.837-7.837c-3.462-2.597-8.375-1.895-10.971,1.567
			c-2.09,2.786-2.09,6.618,0,9.404l7.837,7.837l-7.837,7.837c-3.03,2.672-3.32,7.294-0.648,10.324
			c0.202,0.229,0.419,0.446,0.648,0.648c2.672,3.03,7.294,3.32,10.324,0.648c0.229-0.202,0.446-0.419,0.648-0.648l7.837-7.837
			l7.837,7.837c1.501,1.588,3.563,2.526,5.747,2.612c2.029-0.107,3.921-1.054,5.224-2.612c3.03-2.672,3.32-7.294,0.648-10.324
			c-0.202-0.229-0.419-0.446-0.648-0.648L189.767,238.824z"/>
		<path style="fill:#083863;" d="M322.991,263.901c0-1.045,0-1.567-0.522-2.09l0,0c-0.143-0.782-0.505-1.507-1.045-2.09
			L148.493,56.489c-1.37-1.762-3.518-2.739-5.747-2.612c-2.12-0.11-4.193,0.644-5.747,2.09L2.207,190.758
			c-1.735,1.587-2.525,3.959-2.09,6.269c-0.043,2.066,0.934,4.02,2.612,5.224l202.71,172.931l2.09,1.045h2.612l70.531,5.224h0.522
			c2.12,0.11,4.193-0.644,5.747-2.09l39.184-38.661c1.528-1.714,2.284-3.981,2.09-6.269L322.991,263.901z M142.224,73.207
			l8.359,9.404L28.852,204.342l-9.404-8.359L142.224,73.207z M40.869,214.268L160.51,94.628l144.196,169.273l-94.563,94.563
			L40.869,214.268z M278.583,366.301l-50.155-3.657l80.457-80.457l3.657,50.155L278.583,366.301z"/>
		<path style="fill:#083863;" d="M296.346,399.215c-2.029-0.107-3.921-1.054-5.224-2.612c-3.03-2.672-3.32-7.294-0.648-10.324
			c0.202-0.229,0.419-0.446,0.648-0.648l40.751-40.751c2.597-3.462,7.509-4.164,10.971-1.567s4.164,7.509,1.567,10.971
			c-0.446,0.594-0.973,1.122-1.567,1.567l-40.751,40.751C300.593,398.191,298.53,399.129,296.346,399.215z"/>
		<path style="fill:#083863;" d="M492.787,446.758H147.971c-4.328,0-7.837-3.509-7.837-7.837s3.509-7.837,7.837-7.837h344.816
			c4.328,0,7.837,3.509,7.837,7.837S497.115,446.758,492.787,446.758z"/>
		<path style="fill:#083863;" d="M374.191,426.905c-13.142-0.578-25.839-4.931-36.571-12.539c-3.396-2.587-4.297-7.317-2.09-10.971
			c2.43-3.578,7.189-4.711,10.971-2.612c13.061,8.882,25.078,12.016,34.482,9.404c9.404-2.612,12.539-7.314,18.286-14.106
			c6.568-8.74,15.179-15.736,25.078-20.376c15.151-6.269,33.437-5.224,54.335,2.612c3.88,1.883,5.691,6.409,4.18,10.449
			c-1.676,3.806-6.033,5.641-9.927,4.18c-17.241-6.269-31.347-7.314-42.841-2.612c-7.456,3.609-13.914,8.99-18.808,15.673
			c-6.792,7.314-13.584,15.673-26.122,19.331C381.597,426.371,377.904,426.898,374.191,426.905z"/>
		<path style="fill:#083863;" d="M99.383,213.223c-2.183-0.086-4.246-1.024-5.747-2.612c-2.847-3.188-2.614-8.069,0.522-10.971
			l52.767-49.11c3.442-2.666,8.308-2.445,11.494,0.522c2.847,3.188,2.614,8.069-0.522,10.971l-53.29,49.11
			C103.294,212.617,101.357,213.391,99.383,213.223z"/>
	</g>
</g>
<g>
</g>
<g>
</g>
<g>
</g>
<g>
</g>
<g>
</g>
<g>
</g>
<g>
</g>
<g>
</g>
<g>
</g>
<g>
</g>
<g>
</g>
<g>
</g>
<g>
</g>
<g>
</g>
<g>
</g>
</svg>
