<?xml version="1.0"?>
<svg xmlns="http://www.w3.org/2000/svg" id="Layer_5" enable-background="new 0 0 64 64" height="512px" viewBox="0 0 64 64" width="512px"><g><path d="m59.172 23c-.065 0-.126.015-.19.019.003-.064.018-.126.018-.19 0-2.112-1.718-3.829-3.828-3.829-.065 0-.126.015-.19.019.003-.064.018-.126.018-.19 0-1.737-1.17-3.19-2.757-3.657l7.636-7.636c.723-.724 1.121-1.685 1.121-2.707 0-2.112-1.718-3.829-3.828-3.829-1.023 0-1.984.398-2.707 1.122l-3.179 3.179c-.392-.188-.824-.301-1.286-.301h-11v-4h-31c-3.859 0-7 3.14-7 7s3.141 7 7 7h31v-4h6.586l-6.139 6.139c-.994-.728-2.208-1.139-3.447-1.139-1.534 0-3.036.622-4.121 1.707l-3.527 3.527c-1.48 1.48-2.504 3.344-2.959 5.388l-1.306 5.877-4.087 4.087-2-2-11.414 11.414 17.414 17.414 11.414-11.414-2-2 3.079-3.079 6.734-1.347c2.136-.427 4.079-1.467 5.62-3.008l2.688-2.688 1.172-1.172 9.172-9.172c.723-.722 1.121-1.683 1.121-2.705 0-2.112-1.718-3.829-3.828-3.829zm-4-2c1.008 0 1.828.82 1.828 1.829 0 .488-.19.948-.535 1.293l-10.344 10.343c-.34.34-.811.535-1.293.535-1.008 0-1.828-.82-1.828-1.828 0-.489.19-.948.535-1.293l.907-.906c1.892-.135 3.396-1.639 3.531-3.531l5.906-5.906c.341-.341.811-.536 1.293-.536zm-15.668 6.917 1.961 1.961c.213.213.451.388.7.543l-.044.044c-.341.34-.811.535-1.293.535-1.008 0-1.828-.82-1.828-1.829 0-.471.181-.913.504-1.254zm11.668-10.917c1.008 0 1.828.82 1.828 1.829 0 .488-.19.948-.535 1.293l-5.044 5.043c-.155-.25-.33-.488-.542-.701l-1.965-1.964 4.965-4.965c.341-.34.811-.535 1.293-.535zm-48.172-9c0-2.757 2.243-5 5-5h25v10h-25c-2.757 0-5-2.243-5-5zm34 5h-2v-10h2zm2-6h11c.552 0 1 .449 1 1s-.448 1-1 1h-11zm11 4c1.654 0 3-1.346 3-3 0-.462-.113-.894-.301-1.285l3.18-3.18c.341-.34.811-.535 1.293-.535 1.008 0 1.828.82 1.828 1.829 0 .488-.19.948-.535 1.293l-14.965 14.964-2.586-2.586 7.5-7.5zm-19 42.586-10.293-10.293-1.414 1.414 10.293 10.293-5.586 5.586-14.586-14.586 5.586-5.586 3.293 3.293 1.414-1.414-3.293-3.293 1.586-1.586 14.586 14.586zm11.835-9.973-7.328 1.466-3.507 3.507-10.586-10.586 4.499-4.499 1.433-6.445c.372-1.672 1.209-3.196 2.42-4.408l3.527-3.527c.713-.712 1.699-1.121 2.707-1.121s1.994.409 2.707 1.121l6.758 6.757c.345.346.535.805.535 1.293 0 1.009-.82 1.829-1.828 1.829-.481 0-.952-.195-1.293-.536l-6.879-6.878-2 2v3.272c0 2.404-.937 4.664-2.636 6.364l-1.571 1.571 1.414 1.414 1.571-1.571c2.077-2.078 3.222-4.84 3.222-7.778v-2.444l2.09 2.089c-.7.719-1.09 1.663-1.09 2.668 0 2.112 1.718 3.829 3.828 3.829.065 0 .126-.015.19-.019-.003.065-.018.126-.018.191 0 2.11 1.718 3.828 3.828 3.828.065 0 .126-.015.19-.019-.003.065-.018.126-.018.191 0 1.736 1.17 3.19 2.757 3.657l-.324.324c-1.26 1.26-2.85 2.111-4.598 2.46zm17.63-15.491-9.172 9.171-1.172 1.172c-.34.34-.811.535-1.293.535-1.008 0-1.828-.82-1.828-1.828 0-.481.195-.953.535-1.293l10.344-10.344c.341-.34.811-.535 1.293-.535 1.008 0 1.828.82 1.828 1.829 0 .488-.19.947-.535 1.293z" data-original="#000000" class="active-path" data-old_color="#000000" fill="#083863"/><path d="m34.94 40.933h2v2h-2z" transform="matrix(.981 -.194 .194 .981 -7.461 7.78)" data-original="#000000" class="active-path" data-old_color="#000000" fill="#083863"/><path d="m38.862 40.149h2v2h-2z" transform="matrix(.981 -.196 .196 .981 -7.302 8.626)" data-original="#000000" class="active-path" data-old_color="#000000" fill="#083863"/><path d="m13 5v6h18v-6zm10 2h2v2h-2zm-2 2h-2v-2h2zm-6-2h2v2h-2zm14 2h-2v-2h2z" data-original="#000000" class="active-path" data-old_color="#000000" fill="#083863"/><path d="m8 5c-1.654 0-3 1.346-3 3s1.346 3 3 3 3-1.346 3-3-1.346-3-3-3zm0 4c-.552 0-1-.449-1-1s.448-1 1-1 1 .449 1 1-.448 1-1 1z" data-original="#000000" class="active-path" data-old_color="#000000" fill="#083863"/></g> </svg>
