<?xml version="1.0" encoding="iso-8859-1"?>
<!-- Generator: Adobe Illustrator 19.0.0, SVG Export Plug-In . SVG Version: 6.00 Build 0)  -->
<svg version="1.1" id="Capa_1" xmlns="http://www.w3.org/2000/svg" xmlns:xlink="http://www.w3.org/1999/xlink" x="0px" y="0px"
	 viewBox="0 0 387.91 387.91" style="enable-background:new 0 0 387.91 387.91;" xml:space="preserve">
<g>
	<path style="fill:#00EFD1;" d="M338.151,196.041c8.511,18.436,9.264,39.518,2.09,58.514c-6.693,19.014-18.003,36.069-32.914,49.633
		c-20.825,20.219-46.583,34.629-74.71,41.796c-28.181,6.999-57.799,5.546-85.159-4.18c-10.385-3.387-19.856-9.106-27.69-16.718
		c-18.286-19.853-11.494-47.543,13.584-56.947c7.883-2.863,16.172-4.45,24.555-4.702c32.392-2.09,63.739-4.18,94.563-16.196
		c26.536-9.371,49.406-26.935,65.306-50.155c2.612-4.702,6.792-9.927,12.016-9.404S336.584,192.384,338.151,196.041z"/>
	<g>
		<path style="fill:#083863;" d="M7.963,371.062c-4.328,0-7.837-3.509-7.837-7.837c-0.522-22.988-1.045-71.053,33.959-91.951
			c8.863-4.682,18.712-7.189,28.735-7.314H67c8.882-1.045,16.196-6.792,24.033-13.061l12.016-8.882
			c7.796-4.421,15.818-8.432,24.033-12.016c8.225-3.757,16.246-7.942,24.033-12.539c14.38-11.198,26.899-24.599,37.094-39.706
			c8.427-13.672,14.931-28.439,19.331-43.886l4.702-13.584l0,0l2.612-5.224c2.6-4.09,4.705-8.474,6.269-13.061
			c-32.914-25.6-39.184-77.845-39.706-79.935c-0.61-4.285,2.369-8.253,6.654-8.863c0.046-0.007,0.092-0.013,0.138-0.018
			c4.262-0.34,8.094,2.59,8.882,6.792c0,0.522,6.269,49.633,35.527,71.053c9.404,7.314,1.567,21.42-4.18,31.869l-1.567,3.657
			l-4.702,12.539c-4.729,16.991-11.947,33.189-21.42,48.065c-6.269,8.882-22.465,30.825-40.229,43.363
			c-8.491,5.718-17.605,10.451-27.167,14.106c-7.628,3.199-14.969,7.045-21.943,11.494c-3.727,2.271-7.226,4.895-10.449,7.837
			c-8.882,6.792-18.808,14.629-32.392,16.196h-4.18c-7.804-0.129-15.519,1.665-22.465,5.224
			C17.89,299.486,15.278,331.356,15.8,363.748c0,4.328-3.509,7.837-7.837,7.837L7.963,371.062z"/>
		<path style="fill:#083863;" d="M200.747,387.258c-27.172,0.475-54.056-5.618-78.367-17.763
			c-13.334-7.156-24.791-17.36-33.437-29.78c-8.359-11.494-11.494-14.106-19.853-10.971s-12.016,30.302-12.016,39.706
			c0,4.328-3.509,7.837-7.837,7.837s-7.837-3.509-7.837-7.837c0-13.584,0-45.976,22.465-54.335
			c22.465-8.359,29.78,5.747,37.616,16.196c7.171,10.576,16.868,19.196,28.212,25.078c52.245,27.167,117.029,13.061,135.837,6.269
			c65.306-24.555,103.445-79.935,106.58-156.735c2.09-53.29-18.286-118.596-80.98-126.433h-4.18
			c-5.938-0.011-11.809-1.256-17.241-3.657c-10.971-6.269-39.184-39.184-40.751-65.829c-0.297-4.318,2.962-8.059,7.28-8.357
			c0.012-0.001,0.023-0.002,0.035-0.002c4.318-0.297,8.059,2.962,8.357,7.28c0.001,0.012,0.002,0.023,0.002,0.035
			c1.045,20.376,26.645,49.633,32.914,53.29c3.058,0.908,6.217,1.435,9.404,1.567h5.747c73.665,9.404,97.176,83.069,95.086,142.629
			c-3.657,83.592-44.931,144.196-117.029,170.841C248.106,383.452,224.503,387.151,200.747,387.258z"/>
		<path style="fill:#083863;" d="M196.568,358.001c-17.619-0.013-35.108-3.016-51.722-8.882
			c-11.583-3.819-22.13-10.255-30.825-18.808c-10.126-10.327-14.437-25.023-11.494-39.184c3.484-14.325,14.172-25.805,28.212-30.302
			c8.535-3.191,17.537-4.956,26.645-5.225c31.869-2.09,62.171-4.18,91.951-15.673c24.967-8.83,46.531-25.277,61.649-47.02
			c6.792-12.539,15.151-13.584,19.331-13.061s13.584,9.927,15.151,13.061c9.067,20.324,9.817,43.391,2.09,64.261
			c-6.919,20.315-18.978,38.494-35.004,52.767c-21.846,21.106-48.881,36.065-78.367,43.363
			C221.885,356.403,209.252,357.982,196.568,358.001z M328.747,195.519c-1.88,1.288-3.335,3.107-4.18,5.224
			c-16.759,24.956-41.131,43.83-69.486,53.812c-31.869,12.539-64.784,14.629-96.653,16.718c-7.666,0.163-15.254,1.574-22.465,4.18
			c-13.873,3.959-21.911,18.414-17.952,32.287c1.329,4.658,3.927,8.854,7.503,12.121c6.972,6.672,15.368,11.674,24.555,14.629
			c25.882,9.073,53.859,10.344,80.457,3.657c26.927-6.732,51.61-20.425,71.576-39.706c13.826-12.828,24.393-28.768,30.824-46.498
			c6.391-17.16,5.638-36.166-2.09-52.767l0,0C330.383,197.834,329.673,196.592,328.747,195.519z"/>
	</g>
</g>
<g>
</g>
<g>
</g>
<g>
</g>
<g>
</g>
<g>
</g>
<g>
</g>
<g>
</g>
<g>
</g>
<g>
</g>
<g>
</g>
<g>
</g>
<g>
</g>
<g>
</g>
<g>
</g>
<g>
</g>
</svg>
