<?xml version="1.0" encoding="iso-8859-1"?>
<!-- Generator: Adobe Illustrator 19.0.0, SVG Export Plug-In . SVG Version: 6.00 Build 0)  -->
<svg version="1.1" id="Capa_1" xmlns="http://www.w3.org/2000/svg" xmlns:xlink="http://www.w3.org/1999/xlink" x="0px" y="0px"
	 viewBox="0 0 475.429 475.429" style="enable-background:new 0 0 475.429 475.429;" xml:space="preserve">
<path style="fill:#00ACEA;" d="M421.616,366.765c12.016,0,21.943,9.927,21.943,21.943c-2.09,12.016-13.061,20.375-25.078,18.286
	c-9.404-1.567-16.718-8.882-18.286-18.286C400.196,376.691,409.6,367.287,421.616,366.765z"/>
<path style="fill:#00EFD1;" d="M410.645,159.353c16.718,0,30.302,13.584,30.302,30.302l0,0c0,8.359-3.135,16.196-8.882,21.943
	c-5.747,5.747-13.584,8.882-21.42,8.882H122.776c-2.09,0-4.18-1.045-5.747-2.612l-100.31-100.31
	c-12.016-12.016-12.016-31.347,0-43.363c5.747-5.747,13.584-8.882,21.943-8.882c7.837,0,15.673,3.135,21.42,8.882l82.547,82.547
	c1.045,1.567,3.135,2.612,5.224,2.612H410.645z"/>
<g>
	<circle style="fill:#00ACEA;" cx="70.008" cy="388.708" r="21.42"/>
	
		<rect x="109.443" y="80.322" transform="matrix(0.7071 -0.7071 0.7071 0.7071 -45.6929 118.2484)" style="fill:#00ACEA;" width="20.898" height="67.918"/>
</g>
<path style="fill:#083863;" d="M467.592,211.597H441.47c5.224-6.792,7.314-15.151,7.314-23.51
	c0.522-21.42-16.718-38.661-38.139-39.184l0,0H147.853l-1.567-2.09l10.449-10.449c3.135-2.612,3.135-7.314,0.522-10.449
	l-0.522-0.522l-48.065-48.065c-3.135-3.135-7.837-3.135-10.971,0L86.727,88.299L65.829,67.401
	C58.514,60.61,48.588,56.43,38.661,56.953c-10.449,0-20.375,4.18-27.69,11.494c-14.629,15.151-14.629,38.661,0,53.812l89.861,89.339
	h-76.8c-4.18,0-7.837,3.657-7.837,7.837c0,4.18,3.657,7.837,7.837,7.837h76.278l129.567,73.665L96.653,376.169
	c-4.702-10.449-15.151-16.718-26.645-17.241c-16.196-0.522-29.78,13.061-30.302,29.257c-0.522,16.196,13.061,29.78,29.257,30.302
	c14.629,0,27.167-9.927,29.78-24.033h294.139c3.135,16.196,18.808,26.645,35.004,23.51c16.196-3.135,26.645-18.808,23.51-35.004
	s-18.808-26.645-35.004-23.51c-9.404,1.567-17.763,8.359-21.42,17.241l-133.224-75.755l129.567-73.665h76.278
	c4.18,0,7.837-3.657,7.837-7.837C475.429,215.254,471.772,211.597,467.592,211.597z M102.923,94.046l37.094,37.094l-3.657,3.657
	L99.265,97.704L102.923,94.046z M70.008,402.291c-7.837,0.522-14.106-5.747-14.629-13.584c-0.522-7.837,5.747-14.106,13.584-14.629
	c7.837-0.522,14.106,5.747,14.629,13.584v0.522l0,0c0.522,7.314-5.747,13.584-13.061,14.106
	C70.531,402.291,70.008,402.291,70.008,402.291z M421.616,374.602c7.837-1.567,15.151,3.657,16.718,10.971
	c1.567,7.837-3.657,15.151-10.971,16.718c-1.567,0.522-3.657,0.522-5.224,0c-7.837-1.567-12.539-8.882-10.971-16.718
	C411.69,380.348,415.87,375.646,421.616,374.602z M370.416,378.781H121.208l124.865-70.008L370.416,378.781z M246.074,291.532
	L132.18,227.271h227.265L246.074,291.532z M426.319,205.328c-4.18,4.18-9.927,6.792-15.673,6.792H122.776l-100.31-100.31
	c-8.882-8.882-8.882-22.988,0-31.869l0,0c4.18-4.702,9.926-6.792,16.196-6.792c5.747,0,11.494,2.09,15.673,6.792l82.547,80.98
	c3.135,2.612,6.792,4.18,10.971,3.657h262.792c12.539,0.522,22.988,11.494,22.465,24.033
	C433.11,194.879,431.021,201.148,426.319,205.328z"/>
<g>
	<circle style="fill:#00ACEA;" cx="69.486" cy="388.185" r="16.718"/>
	<circle style="fill:#00ACEA;" cx="421.616" cy="388.185" r="16.718"/>
</g>
<g>
</g>
<g>
</g>
<g>
</g>
<g>
</g>
<g>
</g>
<g>
</g>
<g>
</g>
<g>
</g>
<g>
</g>
<g>
</g>
<g>
</g>
<g>
</g>
<g>
</g>
<g>
</g>
<g>
</g>
</svg>
