<?xml version="1.0"?>
<svg xmlns="http://www.w3.org/2000/svg" id="icons" enable-background="new 0 0 64 64" height="512px" viewBox="0 0 64 64" width="512px" class=""><g><path d="m22.002 19.049v-1.146c2.279-.467 3.999-2.487 3.999-4.902 0-7.168-5.832-13-13-13s-13 5.832-13 13v17.001c0 7.168 5.832 13 13 13s13-5.832 13-13c0-2.415-1.72-4.436-3.999-4.901v-1.031c3.939.495 7 3.859 7 7.931v30.999c0 .553.447 1 1 1s1-.447 1-1v-34.002c0-5.176-3.954-9.445-9-9.949zm1.999 10.952c0 6.065-4.935 11-11 11s-11-4.935-11-11v-17.001c0-6.065 4.935-11 11-11s11 4.935 11 11c0 1.655-1.347 3.002-3.001 3.004-.733-.001-1.439-.269-1.986-.753-.413-.364-1.043-.326-1.412.086-.366.414-.327 1.046.086 1.412.661.585 1.461.972 2.314 1.146v7.213c-.854.175-1.653.562-2.314 1.146-.413.366-.452.998-.086 1.412.198.223.473.337.749.337.236 0 .473-.083.663-.251.548-.484 1.255-.752 1.989-.752.002 0 .003-.001.005-.001 1.651.005 2.993 1.349 2.993 3.002zm-1.999-7.949v-.984c2.348.295 4.383 1.604 5.644 3.48-1.535-1.369-3.486-2.281-5.644-2.496z" data-original="#000000" class="active-path" data-old_color="#000000" fill="#073660"/><path d="m50.999 0c-7.168 0-13 5.832-13 13 0 2.415 1.72 4.436 3.999 4.902v1.146c-5.046.504-9 4.773-9 9.949v34.003c0 .553.447 1 1 1s1-.447 1-1v-30.999c0-4.071 3.061-7.436 7-7.931v1.03c-2.279.466-3.999 2.486-3.999 4.901 0 7.168 5.832 13 13 13s13-5.832 13-13v-17.001c0-7.168-5.832-13-13-13zm-14.645 24.548c1.261-1.876 3.296-3.186 5.644-3.48v.984c-2.158.215-4.109 1.127-5.644 2.496zm25.645 5.453c0 6.065-4.935 11-11 11s-11-4.935-11-11c0-1.653 1.342-2.997 2.993-3.002.002 0 .003.001.005.001.734 0 1.441.268 1.989.753.19.168.427.251.663.251.276 0 .551-.114.749-.337.366-.414.327-1.046-.086-1.412-.661-.585-1.461-.972-2.314-1.146v-7.213c.854-.175 1.653-.562 2.314-1.146.413-.366.452-.998.086-1.412-.367-.413-.999-.45-1.412-.086-.547.484-1.253.752-1.986.753-1.654-.002-3.001-1.349-3.001-3.004 0-6.065 4.935-11 11-11s11 4.935 11 11z" data-original="#000000" class="active-path" data-old_color="#000000" fill="#073660"/></g> </svg>
