<?xml version="1.0"?>
<svg xmlns="http://www.w3.org/2000/svg" xmlns:xlink="http://www.w3.org/1999/xlink" version="1.1" id="Capa_1" x="0px" y="0px" viewBox="0 0 512 512" style="enable-background:new 0 0 512 512;" xml:space="preserve" width="512px" height="512px" class=""><g><g>
	<g>
		<path d="M401.067,0h-179.2C91.233,0,0,94.746,0,230.4v145.067C0,433.088,0,512,42.667,512c23.424,0,37.442-19.509,49.205-45.183    c10.562,15.051,29.094,28.116,61.729,28.116c27.925,0,47.492-6.233,59.808-19.063c17.784-18.508,16.658-46.513,15.567-73.6    c-0.922-23.035-1.645-44.914,8.028-60.615c7.91,1.078,18.997,6.309,18.997,33.81V486.4c0,14.138,11.462,25.6,25.6,25.6    c14.138,0,25.6-11.461,25.6-25.6V294.974c4.535-4.548,8.74-9.047,12.733-13.399c3.558-3.883,6.967-7.6,10.367-11.008    c12.717-12.717,20.375-31.387,28.492-51.154c9.3-22.679,19.85-48.383,39.775-68.313c15.684-13.982,33.204-25.756,52.075-34.996    C482.192,98.733,512,82.325,512,51.2C512,7.663,476.225,0,401.067,0z M211.925,402.958c0.983,24.596,1.917,47.825-10.825,61.092    c-8.934,9.296-24.467,13.817-47.5,13.817c-27.125,0-44.608-10.125-53.333-30.929l0.113-0.289c1.451-3.66,2.899-7.354,4.345-11.082    c18.008-46.329,36.633-94.233,83.008-94.233c4.956,0,9.74-0.19,14.444-0.468c1.157-0.069,2.302-0.16,3.444-0.247    c4.139-0.31,8.185-0.729,12.139-1.258c0.344-0.047,0.714-0.06,1.057-0.109C210.133,358.425,211.075,381.729,211.925,402.958z     M256,331.606c-0.633-0.467-1.359-0.811-2.025-1.233h0c0.679-0.258,1.353-0.523,2.025-0.791V331.606z M290.133,247.467V486.4    c0,4.713-3.82,8.533-8.533,8.533s-8.533-3.82-8.533-8.533V247.467c0.23-11.297-2.487-22.46-7.883-32.388l0.277-0.015l0.173,0.015    c5.605,0.051,11.139-1.251,16.133-3.796c1.699-0.878,3.324-1.891,4.86-3.029c0.499-0.368,0.963-0.835,1.452-1.233    c0.969-0.789,1.951-1.54,2.88-2.446C290.133,221.283,290.133,236.329,290.133,247.467z M442.408,101.154    c-20.308,9.963-39.126,22.713-55.908,37.88c-22.35,22.35-33.583,49.737-43.5,73.9c-7.767,18.925-14.475,35.271-24.767,45.567    c-3.575,3.575-7.15,7.471-10.883,11.537l-0.15,0.167v-22.737c-0.573-29.633,1.3-59.263,5.6-88.588    c5.292-31.05,14.4-54.512,26.033-67.513c10.155-8.953,23.103-14.102,36.633-14.567c0.269-0.04,0.535-0.094,0.798-0.161    c1.326,10.465,7.527,19.685,16.719,24.861c4.214,2.094,9.328,0.383,11.432-3.826s0.405-9.327-3.799-11.441    c-5.672-4.146-8.743-10.972-8.083-17.967c-0.66-6.995,2.411-13.82,8.083-17.967c4.204-2.114,5.903-7.232,3.799-11.441    c-2.104-4.209-7.218-5.92-11.432-3.826c-9.192,5.175-15.393,14.396-16.719,24.861c-0.263-0.067-0.529-0.121-0.798-0.161    c-18.21,0.492-35.626,7.563-49.025,19.904c-17.817,19.888-26.4,52.508-30.325,75.713c-5.675,22.421-13.125,36.129-22.133,40.742    c-8.867,4.542-19.758,0.246-31.275-4.313l-2.403-0.947c-23.46-13.566-60.213-20.165-112.306-20.165    c-0.269,0.04-0.535,0.094-0.798,0.161c-1.326-10.465-7.527-19.686-16.719-24.861c-2.728-1.372-5.982-1.182-8.532,0.498    c-2.55,1.681-4.007,4.596-3.822,7.644s1.985,5.765,4.72,7.124c5.672,4.146,8.743,10.972,8.083,17.967    c0.66,6.995-2.411,13.82-8.083,17.967c-4.204,2.114-5.903,7.232-3.799,11.441c2.104,4.209,7.218,5.92,11.432,3.826    c9.192-5.176,15.392-14.396,16.719-24.861c0.263,0.067,0.529,0.121,0.798,0.161c49.417,0,83.517,5.938,104.25,18.158    c15.349,8.039,24.621,24.27,23.75,41.575v63.642c-9.32,4.21-19.089,7.345-29.118,9.345c-1.576,0.33-3.18,0.625-4.786,0.911    c-4.138,0.729-8.4,1.318-12.785,1.766c-1.554,0.159-3.124,0.301-4.71,0.424c-5.451,0.417-11.013,0.712-16.867,0.712    c-3.503-0.005-7.003,0.218-10.477,0.666c-50.388,6.574-71.369,60.535-88.439,104.434c-1.898,4.867-3.764,9.671-5.638,14.345    c-11.199,27.867-22.819,51.222-40.513,51.222c-25.6,0-25.6-77.717-25.6-119.467V230.4c0-106.188,63.325-213.333,204.8-213.333    h179.2c80.825,0,93.867,10.063,93.867,34.133C494.933,72.237,470.592,85.637,442.408,101.154z" data-original="#000000" class="active-path" data-old_color="#000000" fill="#083863"/>
	</g>
</g></g> </svg>
