<?xml version="1.0"?>
<svg xmlns="http://www.w3.org/2000/svg" height="512px" viewBox="0 0 60 60" width="512px" class=""><g><g id="032---Improved-Mental-Health" fill="none"><g id="Icons" transform="translate(1)"><path id="Shape" d="m45.14 37.71c-1.2717059 2.9241677-1.7477888 6.1325525-1.38 9.3.2251005 2.0621875.6333794 4.1002353 1.22 6.09.3114798 1.0302921.70611 2.0335892 1.18 3 .2266484.4493031.4874126.880567.78 1.29.1976945.3126654.2125372.7073333.0388853 1.0339643s-.5091256.5350548-.8788853.5460357h-22.61c-.43359.0156841-.8251719-.2576074-.96-.67-.51-1.66-2.01-5.77-4.72-7-2.8490329 1.0371788-5.7535125 1.9151997-8.7 2.63-1.42829941.3054033-2.84225874-.5739027-3.2-1.99-.26996768-.710366-.36930207-1.4742133-.29-2.23.23373353-.770233.31525045-1.578609.24-2.38-.26-1.01-1.23-1.26-1.98-1.8-.62-.44.49-1.85.49-1.85s-1.17-.88-1.6-1.25.18-.98.73-2.15c.22694079-.5080204.29323378-1.0732554.19-1.62-.2-1.07-1.83-1.47-2.63-2.07-.37-.28-.98-.7-1.05-1.21-.1-.71.73-1.71 1.14-2.21 1.74602057-2.2433313 3.23530279-4.6751548 4.44-7.25.16449211-.2694045.26061668-.5749433.28-.89-.03-1.43-2.07-2.02-2.27-3.41-.02977445-.4079441.04239212-.816888.21-1.19.57239348-1.2275971 1.06671007-2.4901084 1.48-3.78.23804444-1.185596.55202463-2.3546712.94-3.5.83859812-2.3003324 2.13083757-4.40872311 3.8-6.2 2.44-2.59 6.05-3.87 9.46-4.55 3.1317619-.69119864 6.3104843-1.14912185 9.51-1.37 3.8630441-.22644569 7.716312.58495033 11.16 2.35-1.5521965 1.23349883-2.7410153 2.8646688-3.44 4.72-2.7098214-1.35217028-5.691698-2.07028277-8.72-2.1-9.11 0-17 6.6-17 13.5s7.39 8.5 16.5 8.5h.49c2.2114453-.0016591 4.0061374 1.7885575 4.01 4-.0013301 1.0566314.4755731 2.0571094 1.297242 2.7214375.821669.664328 1.8998344.9211396 2.932758.6985625 1.6393628-.3709651 2.7949001-1.8393735 2.77-3.52v-1.47c.0052631-1.9314814 1.1225342-3.687193 2.87-4.51 1.4520776-.6128515 2.6637297-1.6840222 3.45-3.05.5555547.0887639 1.1174033.1322403 1.68.13 1.7339006.0023784 3.4437785-.4053881 4.99-1.19.01.42.02.83.01 1.24-.0252405 2.7307662-.8188544 5.3992498-2.29 7.7-1.49 2.35-3.44 4.39-4.57 6.96z" fill="#e8edfc" data-original="#E8EDFC" class=""/><path id="Shape" d="m45.5 22.891c-.058-.009-.117-.012-.175-.021-.01.019-.025.035-.035.054.066-.009.135-.024.21-.033z" fill="#cad9fc" data-original="#CAD9FC"/><path id="Shape" d="m49.71 30.75c1.4711456-2.3007502 2.2647595-4.9692338 2.29-7.7.01-.41 0-.82-.01-1.24-.9440175.4717182-1.9510042.8051352-2.99.99v.25c-.0252405 2.7307662-.8188544 5.3992498-2.29 7.7-1.49 2.35-3.44 4.39-4.57 6.96-1.2717059 2.9241677-1.7477888 6.1325525-1.38 9.3.2251005 2.0621875.6333794 4.1002353 1.22 6.09.3114798 1.0302921.70611 2.0335892 1.18 3 .2266484.4493031.4874126.880567.78 1.29.1976945.3126654.2125372.7073333.0388853 1.0339643s-.5091256.5350548-.8788853.5460357h3c.3697597-.0109809.7052334-.2194047.8788853-.5460357s.1588092-.7212989-.0388853-1.0339643c-.2925874-.409433-.5533516-.8406969-.78-1.29-.47389-.9664108-.8685202-1.9697079-1.18-3-.5866206-1.9897647-.9948995-4.0278125-1.22-6.09-.3677888-3.1674475.1082941-6.3758323 1.38-9.3 1.13-2.57 3.08-4.61 4.57-6.96z" fill="#cad9fc" data-original="#CAD9FC"/><path id="Shape" d="m45.32 22.87c-.7862703 1.3659778-1.9979224 2.4371485-3.45 3.05-1.7474658.822807-2.8647369 2.5785186-2.87 4.51v1.47c.0249001 1.6806265-1.1306372 3.1490349-2.77 3.52-1.0329236.2225771-2.111089-.0342345-2.932758-.6985625-.8216689-.6643281-1.2985721-1.6648061-1.297242-2.7214375-.0038626-2.2114425-1.7985547-4.0016591-4.01-4h-.49c-9.11 0-16.5-1.6-16.5-8.5s7.89-13.5 17-13.5c3.028302.02971723 6.0101786.74782972 8.72 2.1-.479505 1.24417821-.7236489 2.5666241-.72 3.9-.0050384 5.4281313 3.9547087 10.04642 9.32 10.87z" fill="#a4c2f7" data-original="#A4C2F7" class=""/><path id="Shape" d="m58 12c.0048625 4.1385964-2.3190111 7.927941-6.01 9.8v.01c-1.5462215.7846119-3.2560994 1.1923784-4.99 1.19-.5625967.0022403-1.1244453-.0412361-1.68-.13-5.3652913-.82358-9.3250384-5.4418687-9.32-10.87-.0036489-1.3333759.240495-2.65582179.72-3.9 1.887719-4.95771419 7.0449259-7.86184771 12.2629599-6.90553508s9.0101643 5.50059721 9.0170401 10.80553508z" fill="#fff" data-original="#FFF"/><path id="Shape" d="m47 1c-.5056337.0027745-1.010483.0401955-1.511.112 4.7639443.64768908 8.5540378 4.31651848 9.3562441 9.056891.8022064 4.7403726-1.5696773 9.4519844-5.8552441 11.631109v.01c-1.0980469.5534232-2.2811142.918822-3.5 1.081.5000769.0724165 1.004707.1088434 1.51.109 1.7339006.0023784 3.4437785-.4053881 4.99-1.19v-.01c4.5297366-2.3092386 6.8866098-7.4220203 5.7004985-12.36613161s-5.6061019-8.4310973-10.6904985-8.43386839z" fill="#e8edfc" data-original="#E8EDFC" class=""/><path id="Shape" d="m32 16v2c0 .5522847-.4477153 1-1 1h-2.5c-.2761424 0-.5.2238576-.5.5v2.5c0 .5522847-.4477153 1-1 1h-2c-.5522847 0-1-.4477153-1-1v-2.5c0-.2761424-.2238576-.5-.5-.5h-2.5c-.5522847 0-1-.4477153-1-1v-2c0-.5522847.4477153-1 1-1h2.5c.2761424 0 .5-.2238576.5-.5v-2.5c0-.5522847.4477153-1 1-1h2c.5522847 0 1 .4477153 1 1v2.5c0 .2761424.2238576.5.5.5h2.5c.5522847 0 1 .4477153 1 1z" fill="#f5f5f5" data-original="#F5F5F5"/></g><g id="Layer_2" fill="#fff" transform="translate(1 1)"><path id="Shape" d="m12.623 5.069-1.116-1.66c2.37579-1.49484916 5.0211787-2.51026804 7.787-2.989l.391 1.962c-2.5063132.42799047-4.9050934 1.34069543-7.062 2.687z" data-original="#FFF"/><path id="Shape" d="m26.33 57.99c-.3763121-.0588747-.6865019-.3264134-.8-.69-.764-2.5-2.316-5.848-4.64-6.96-.145-.049.239-.146-2.02.63 1.772 1.448 2.988 4.128 3.661 6.33.1134981.3635866.4236879.6311253.8.69z" data-original="#FFF"/><path id="Shape" d="m8.91 50.94c-.865-2.456.314-3.137-.05-4.61-.26-1.01-1.23-1.26-1.98-1.8-.62-.44.49-1.85.49-1.85s-1.18-.87-1.6-1.25c-.681-.57 1.28-1.863.92-3.77-.2-1.07-1.83-1.48-2.63-2.07-1.239-.937-1.615-1.341.09-3.42 1.73820276-2.2487328 3.22693831-4.6796636 4.44-7.25.16449211-.2694045.26061668-.5749433.28-.89-.01-1.43-2.08-2.02-2.27-3.41-.161-1.071 1.233-3.023 1.69-4.97.23804444-1.185596.55202463-2.3546712.94-3.5.8385981-2.30033243 2.1308376-4.40872311 3.8-6.2 2.44-2.59 6.05-3.87 9.46-4.55 3.022353-.66160272 6.087093-1.11202462 9.172-1.348-3.841-.241-8.5.6-12.172 1.348-3.41.68-7.02 1.96-9.46 4.55-1.66916243 1.79127689-2.96140188 3.89966757-3.8 6.2-.38797537 1.1453288-.70195556 2.314404-.94 3.5-.458 1.95-1.853 3.881-1.69 4.97.19 1.39 2.26 1.98 2.27 3.41-.01938332.3150567-.11550789.6205955-.28.89-1.21306169 2.5703364-2.70179724 5.0012672-4.44 7.25-1.7 2.077-1.329 2.483-.09 3.42.8.59 2.43 1 2.63 2.07.358 1.9-1.6 3.2-.92 3.77.42.38 1.6 1.25 1.6 1.25s-1.11 1.41-.49 1.85c.75.54 1.72.79 1.98 1.8.363 1.471-.812 2.161.05 4.61.2221748.7171658.6940406 1.3309461 1.33 1.73h.01c.966.557 1.829.288 2.986 0-.63457775-.3996323-1.10499533-1.0133747-1.326-1.73z" data-original="#FFF"/></g><g id="Layer_3" fill="#428dff" transform="translate(-1 -1)"><path id="Shape" d="m17.649 5.458c-.5522847.00276142-1.0022386-.44271525-1.005-.995s.4427153-1.00223858.995-1.005h.01c.5522847 0 1 .44771525 1 1s-.4477153 1-1 1z" data-original="#428DFF" class="active-path" style="fill:#083863" data-old_color="#428DFF"/><path id="Shape" d="m52.2 8.4-5.308 7.078-1.185-1.185c-.3923789-.3789722-1.0160848-.3735524-1.4018186.0121814s-.3911536 1.0094397-.0121814 1.4018186l2 2c.1874927.1875494.4418052.2929434.707.293h.071c.2895429-.0211914.5555841-.1671673.729-.4l6-8c.3313708-.4418278.2418278-1.06862915-.2-1.4s-1.0686292-.2418278-1.4.2z" data-original="#428DFF" class="active-path" style="fill:#083863" data-old_color="#428DFF"/><path id="Shape" d="m49 1c-2.4905851-.00000048-4.918603.78019655-6.943 2.231-3.4577346-1.66095513-7.2802184-2.41788261-11.11-2.2-3.2489857.22349689-6.4768728.6881094-9.657 1.39-.5412391.11045695-.8904569.63876095-.78 1.18s.6387609.89045695 1.18.78c3.0824315-.68044617 6.2109629-1.13201089 9.36-1.351 3.1970138-.18419254 6.3932355.37475264 9.338 1.633-.8833043.91465671-1.6163632 1.96328193-2.172 3.107-2.5894336-1.14372002-5.3853308-1.74604939-8.216-1.77-9.42 0-18 6.911-18 14.5 0 8.515 9.987 9.5 17.5 9.5h.49c1.6589339-.0011089 3.0055883 1.3410716 3.01 3-.0015922 1.1922294.4706294 2.3362315 1.3127253 3.1802029.842096.8439715 1.9850447 1.318737 3.1772747 1.3197971.314933-.00117.6289134-.0346791.937-.1 2.1075128-.4627768 3.599969-2.3424446 3.573-4.5v-1.47c.0101792-1.5443113.9041363-2.9462691 2.3-3.607 1.4094888-.6254117 2.6226651-1.6218754 3.51-2.883.392.038.789.06 1.19.06 1.3595463-.0039649 2.7083736-.2407199 3.988-.7-.0620023 2.4548341-.7963211 4.8456075-2.123 6.912-.52.822-1.12 1.632-1.7 2.415-1.1536376 1.4454085-2.1405439 3.0163406-2.942 4.683-1.3459172 3.086068-1.848366 6.4741462-1.456 9.818.2297425 2.1194264.6497701 4.2138751 1.255 6.258.3256838 1.0783355.7383726 2.1284513 1.234 3.14.2267872.4505543.4843993.8849197.771 1.3l.07.108-22.61.068c-.6499423-2.3795728-1.8552983-4.5709423-3.517-6.394l.728-.255c.748-.263 1.314-.461 1.606-.553 4.269-1.361 6.4-3.311 6.345-5.8-.0129787-.5522847-.4712153-.9894787-1.0235-.9765s-.9894787.4712153-.9765 1.0235c.024 1.026-.816 2.525-4.95 3.843-.3.095-.888.3-1.663.572-.714.25-1.59.557-2.55.886h-.008c-2.8080862 1.0234584-5.6704232 1.8914402-8.574 2.6-.93198557.1768449-1.83732085-.4137639-2.051-1.338-.21743602-.5596131-.30066234-1.1624046-.243-1.76.029-.2.075-.409.12-.613.20713173-.6993317.24144713-1.4384855.1-2.154-.28765691-.9104518-.95489878-1.6520748-1.83-2.034-.075-.043-.151-.086-.226-.131.10673357-.2182594.23503941-.4252907.383-.618.16732921-.2126301.24135318-.4839913.20517341-.7521362-.03617977-.2681448-.1794749-.510184-.39717341-.6708638-.239-.177-.806-.6-1.217-.932.049-.091.1-.191.155-.281.154-.274.331-.59.5-.957.31612196-.6978467.40969494-1.4761085.268-2.229-.23-1.23-1.407-1.83-2.267-2.268-.25684099-.1209817-.50479422-.2599959-.742-.416l-.091-.068c-.2037021-.1419059-.39474751-.3011661-.571-.476 0-.151.163-.518.926-1.447 1.7856588-2.3045238 3.31406871-4.7973275 4.558-7.434.24026284-.4081447.37307092-.8705645.386-1.344-.0958973-1.0079824-.62690921-1.9239232-1.454-2.508-.4-.37-.783-.72-.827-1.043.00704209-.2366168.06002526-.4696069.156-.686.163-.428.351-.849.539-1.269.4114768-.8483378.74000391-1.7344568.981-2.646l.058-.256c.21485566-1.0560694.49743941-2.0972201.846-3.117.54696005-1.4787373 1.2866797-2.8788248 2.2-4.164.454429-.63655429.9558272-1.23823219 1.5-1.8.5334325-.54630033 1.1222709-1.03560253 1.757-1.46.4333376-.30796029.5603887-.89551735.293-1.355-.1383077-.2366212-.3695579-.40434888-.6374315-.4623343-.2678737-.05798543-.5477867-.000907-.7715685.1573343-.74942.50212656-1.4447992 1.08054793-2.075 1.726-.6153088.63124372-1.1819291 1.30817938-1.695 2.025-1.0158393 1.4301764-1.83891522 2.9879013-2.448 4.633-.37813658 1.1017488-.68477386 2.2267536-.918 3.368l-.057.247c-.21324826.7871759-.50087651 1.5522871-.859 2.285-.2.456-.406.911-.586 1.383-.22839105.5259096-.31890919 1.1013709-.263 1.672.20039568.8944252.71619888 1.6867671 1.453 2.232.486.448.806.763.808 1.07-.04117671.1428965-.09890105.2804952-.172.41-1.18815524 2.5208205-2.64814967 4.9042933-4.354 7.108-.724.885-1.484 1.914-1.325 2.944.1949412.7580737.68211584 1.4081192 1.355 1.808l.092.069c.32714606.2276767.67228627.4283397 1.032.6.434.221 1.16.591 1.21.855.06387672.338321.02630188.6879758-.108 1.005-.149.317-.3.59-.437.827-.363.647-.971 1.728-.059 2.49.216.2.589.49.93.751-.24869695.4385171-.36049159.9414188-.321 1.444.053377.3918534.26566935.7444684.587.975.226.162.467.3.707.441.582.334.81.489.887.788.05082353.4129023.01124222.8319183-.116 1.228-.057.256-.113.512-.15.776-.10132486.9099582.01380312 1.830982.336 2.688.5293596 1.8869684 2.42905914 3.0421675 4.348 2.644 2.8507316-.6870492 5.6616223-1.5299826 8.42-2.525 2.189 1.292 3.485 5.041 3.843 6.2.2523293.8438204 1.0302676 1.420659 1.911 1.417h.007l22.61-.063c.7333368-.0019289 1.4068075-.4050479 1.7549686-1.0504706s.3151706-1.4296288-.0859686-2.0435294l-.072-.113c-.2367786-.3414152-.4505839-.6982028-.64-1.068-.4509366-.919262-.8261795-1.8737568-1.122-2.854-.5712755-1.9325045-.9675392-3.9124846-1.184-5.916-.3514397-2.9894906.0971775-6.0186917 1.3-8.778.7421213-1.5279659 1.6531398-2.9679521 2.716-4.293.6-.812 1.223-1.652 1.784-2.535 1.5761464-2.4502815 2.4243557-5.2976431 2.446-8.211.005-.228 0-.463-.006-.7 4.7009636-2.7126853 6.9934169-8.244943 5.5889754-13.48758209-1.4044415-5.24263908-6.1554787-8.88802828-11.5829754-8.88741791zm-5.559 25.017c-2.091598.9935065-3.4290683 3.0974666-3.441 5.413v1.47c.0279517 1.2083175-.7971582 2.2698892-1.975 2.541-.7396483.1657695-1.5144161-.0186991-2.1-.5-.585024-.474591-.924853-1.1876809-.925-1.941-.0039723-1.3300625-.5361503-2.6040705-1.4794595-3.5417537-.9433093-.9376832-2.220478-1.4622305-3.5505405-1.4582463h-.47c-10.72 0-15.5-2.313-15.5-7.5 0-6.542 7.626-12.5 16-12.5 2.5822893.02440919 5.1317701.58135278 7.489 1.636-.8984053 3.0467073-.5482543 6.325631.973261 9.1139188 1.5215152 2.7882878 4.0894667 4.8570003 7.137739 5.7500812-.6222348.6317989-1.3536927 1.1457506-2.159 1.517zm5.559-3.017c-5.5228475 0-10-4.4771525-10-10s4.4771525-10 10-10 10 4.4771525 10 10c-.0060624 5.5203344-4.4796656 9.9939376-10 10z" data-original="#428DFF" class="active-path" style="fill:#083863" data-old_color="#428DFF"/><path id="Shape" d="m33 15h-2v-2c0-1.1045695-.8954305-2-2-2h-2c-1.1045695 0-2 .8954305-2 2v2h-2c-1.1045695 0-2 .8954305-2 2v2c0 1.1045695.8954305 2 2 2h2v2c0 1.1045695.8954305 2 2 2h2c1.1045695 0 2-.8954305 2-2v-2h2c1.1045695 0 2-.8954305 2-2v-2c0-1.1045695-.8954305-2-2-2zm0 4h-2.5c-.8284271 0-1.5.6715729-1.5 1.5v2.5h-2v-2.5c0-.8284271-.6715729-1.5-1.5-1.5h-2.5v-2h2.5c.8284271 0 1.5-.6715729 1.5-1.5v-2.5h2v2.5c0 .8284271.6715729 1.5 1.5 1.5h2.5z" data-original="#428DFF" class="active-path" style="fill:#083863" data-old_color="#428DFF"/></g></g></g> </svg>
