<?xml version="1.0" encoding="iso-8859-1"?>
<!-- Generator: Adobe Illustrator 19.0.0, SVG Export Plug-In . SVG Version: 6.00 Build 0)  -->
<svg version="1.1" id="Capa_1" xmlns="http://www.w3.org/2000/svg" xmlns:xlink="http://www.w3.org/1999/xlink" x="0px" y="0px"
	 viewBox="0 0 512 512" style="enable-background:new 0 0 512 512;" xml:space="preserve">
<linearGradient id="SVGID_1_" gradientUnits="userSpaceOnUse" x1="256" y1="490.126" x2="256" y2="25.874" gradientTransform="matrix(1 0 0 -1 0 514)">
	<stop  offset="0" style="stop-color:#2AF598"/>
	<stop  offset="1" style="stop-color:#009EFD"/>
</linearGradient>
<path style="fill:url(#SVGID_1_);" d="M421,254.814c0-14.842-6.43-28.714-17.037-38.393c0.668-3.067,1.037-6.14,1.037-9.023
	c0-13.421-4.337-26.185-12.211-35.938c-4.985-6.174-11.112-10.844-17.996-13.824c-2.152-21.914-17.962-39.888-38.794-45.297
	c-7.688-19.148-26.283-32.525-47.829-32.525c-12.131,0-23.299,4.167-32.17,11.128c-8.871-6.961-20.039-11.128-32.17-11.128
	c-21.546,0-40.142,13.377-47.829,32.525c-21.791,5.659-38.086,25.063-39.003,48.346C119.706,168.853,108,186.488,108,207.398
	c0,2.319,0.151,4.611,0.453,6.871C96.99,224.005,90,238.118,90,253.125c0,10.22,3.217,20.068,8.97,28.448
	C93.216,289.92,90,299.786,90,310.091c0,13.943,5.425,26.987,15.274,36.728c6.314,6.245,13.991,10.678,22.382,13.035
	c5.806,22.383,26.195,38.96,50.388,38.96c3.498,0,7.019-0.394,10.506-1.166c9.482,8.983,21.98,14.166,35.28,14.166
	c12.131,0,23.299-4.167,32.17-11.128c8.871,6.961,20.039,11.128,32.17,11.128c13.57,0,26.185-5.045,35.601-13.783
	c3.211,0.524,6.6,0.783,10.186,0.783c24.135,0,44.494-16.334,50.425-38.441C406.09,354.037,422,333.894,422,310.091
	c0-10.175-3.143-19.606-8.987-27.614C418.145,274.333,421,264.79,421,254.814z M223.83,371.814c-5.18,0-8.894-3.662-10.642-7.089
	l-5.566-10.911h-18.471l-4.787,2.911c-1.568,0.953-3.938,2.089-6.32,2.089c-6.754,0-12.044-5.271-12.044-12V334.53l-12.716-12.716
	H142c-6.729,0-12-5.149-12-11.723c0-4.89,3.724-8.563,7.208-10.37L148,294.125v-24.711l-10.54-5.659
	c-3.593-1.929-7.46-6.078-7.46-10.629c0-5.315,4.618-9.437,8.91-11.016l13.09-4.82v-19.741l-2.51-4.525
	c-1.017-1.833-1.49-3.621-1.49-5.625c0-3.61,1.276-6.633,3.43-8.69c9.474,9.912,22.809,16.106,37.57,16.106v-40
	c-6.617,0-12-5.383-12-12h-18v-0.054h17.957c0-6.667,5.459-12.09,12.17-12.09c0.246,0,0.578,0.017,0.987,0.049l9.552,0.754
	l12.189-12.926l0.395-7.315c0.352-6.51,5.33-11.418,11.58-11.418c6.711,0,12.17,5.424,12.17,12.09v118.91c0,6.617-5.383,12-12,12
	s-12-5.383-12-12h-40c0,28.673,23.327,52,52,52c4.131,0,8.145-0.499,12-1.413v58.323C236,366.391,230.541,371.814,223.83,371.814z
	 M373,321.987v-0.172c-6.617,0-12-5.383-12-12h-40c0,18.104,9.305,34.069,23.378,43.384c-2.111,3.387-5.942,5.616-10.422,5.616
	c-3.939,0-5.65-0.683-6.32-1.089l-4.787-2.911h-18.471l-5.566,10.911c-1.975,3.87-5.853,6.089-10.642,6.089
	c-6.711,0-12.17-5.424-12.17-12.09v-109.91c0-7.168,5.832-13,13-13s13,5.832,13,13h40c0-29.224-23.775-53-53-53
	c-4.484,0-8.838,0.565-13,1.618v-66.528c0-6.667,5.459-12.09,12.17-12.09c6.25,0,11.229,4.909,11.58,11.418l0.395,7.315
	l12.189,12.926l9.552-0.754c0.409-0.032,0.741-0.049,0.987-0.049c6.711,0,12.17,5.424,12.17,12.09c0,2.116-0.01,3.386-0.021,4.678
	c-0.011,1.424-0.022,2.874-0.022,5.376v8.284l12.716,12.716H356c7.309,0,8.967,9.609,8.999,13.468
	c-0.064,0.628-0.424,1.854-0.781,2.733L360,214.52v24.244l13.09,4.819c4.806,1.769,7.91,6.178,7.91,11.231
	c0,5.28-3.337,8.953-6.46,10.629L364,271.102v24.711l10.792,5.597c7.208,3.738,7.208,7.33,7.208,8.681
	C382,315.678,378.116,320.528,373,321.987z M45,284.814H0v-40h45V284.814z M62.919,346.771L81.678,382.1l-41.97,22.284
	l-18.759-35.329L62.919,346.771z M44.011,115.291l40.175,23.211l-20.01,34.635l-40.175-23.211L44.011,115.291z M129.068,85.39
	l-25.283-40.233l33.867-21.283l25.283,40.233L129.068,85.39z M136.505,426.987l34.666,19.957l-23.708,41.182l-34.666-19.957
	L136.505,426.987z M512,244.814v40h-45v-40H512z M449.081,346.771l41.97,22.284l-18.759,35.329l-41.97-22.284L449.081,346.771z
	 M447.824,173.137l-20.01-34.635l40.175-23.211l20.01,34.635L447.824,173.137z M382.932,85.39l-33.867-21.283l25.283-40.233
	l33.867,21.283L382.932,85.39z M375.495,426.987l23.708,41.182l-34.666,19.957l-23.708-41.182L375.495,426.987z"/>
<g>
</g>
<g>
</g>
<g>
</g>
<g>
</g>
<g>
</g>
<g>
</g>
<g>
</g>
<g>
</g>
<g>
</g>
<g>
</g>
<g>
</g>
<g>
</g>
<g>
</g>
<g>
</g>
<g>
</g>
</svg>
