<?xml version="1.0" encoding="iso-8859-1"?>
<!-- Generator: Adobe Illustrator 19.0.0, SVG Export Plug-In . SVG Version: 6.00 Build 0)  -->
<svg version="1.1" id="Capa_1" xmlns="http://www.w3.org/2000/svg" xmlns:xlink="http://www.w3.org/1999/xlink" x="0px" y="0px"
	 viewBox="0 0 433.894 433.894" style="enable-background:new 0 0 433.894 433.894;" xml:space="preserve">
<path style="fill:#D4E1F4;" d="M380.474,152.616c8.359,16.196,10.449,35.004,4.702,52.245v1.045
	c-3.657,10.449-9.404,19.853-16.718,27.69c-13.061,13.061-30.302,20.375-48.588,20.375c-8.359,0-16.196-1.567-24.033-4.702
	c-9.404-3.135-17.763-8.882-24.555-15.673c-13.584-13.584-20.898-31.869-20.375-50.678c0.522-10.449,3.135-20.898,7.837-30.302
	l6.269-8.882l54.857-78.89L380.474,152.616z"/>
<path style="fill:#00EFD1;" d="M250.906,182.918c-0.522,18.808,6.792,37.094,20.375,50.678c6.792,6.792,15.151,12.539,24.555,15.673
	v4.702c0,43.363-35.004,78.367-78.367,78.367s-78.367-35.004-78.367-78.367s35.004-78.367,78.367-78.367
	c11.494,0,22.465,2.612,32.914,7.314H250.906z M253.518,253.971c0-20.375-16.196-36.571-36.571-36.571s-36.571,16.196-36.571,36.571
	s16.196,36.571,36.571,36.571S253.518,274.347,253.518,253.971z"/>
<path style="fill:#00ACEA;" d="M295.314,253.971v-4.702c7.837,3.135,15.673,4.702,24.033,4.702c18.286,0,36.049-7.314,49.11-20.375
	c7.314-7.837,13.061-17.241,16.718-27.69h2.09c14.629,14.629,27.69,30.824,38.661,48.065
	c-72.098,115.461-224.653,150.465-340.114,77.845c-31.347-19.853-58.514-46.498-77.845-77.845
	c44.931-72.098,123.82-115.461,208.98-115.461c15.673,0,31.347,1.567,47.02,4.18l1.045,1.045l-6.269,8.882
	c-4.702,9.404-7.314,19.853-7.837,30.302h-1.045c-10.449-4.702-21.42-7.314-32.914-7.314c-43.363,0-78.367,35.004-78.367,78.367
	s35.004,78.367,78.367,78.367S295.314,297.335,295.314,253.971L295.314,253.971z"/>
<g>
	<circle style="fill:#083863;" cx="216.947" cy="253.971" r="36.571"/>
	<path style="fill:#083863;" d="M432.718,249.792c-10.971-17.241-24.033-33.437-38.661-47.543c4.18-17.763,1.567-37.094-6.792-53.29
		l0,0l-61.126-88.816c-1.567-2.09-3.657-3.135-6.269-3.135s-5.224,1.045-6.792,3.135l-51.2,74.71
		c-14.629-3.135-29.78-4.18-44.931-4.18c-87.771-0.522-169.273,44.931-215.771,119.118c-1.567,2.612-1.567,5.747,0,8.359
		c75.755,119.118,233.535,154.645,352.653,78.89c31.869-20.375,59.037-47.02,78.89-78.89
		C434.286,255.539,434.286,252.404,432.718,249.792z M319.869,78.428l53.812,78.367c7.314,14.106,8.882,30.824,4.18,45.975l0,0
		c-2.612,9.404-8.359,17.763-15.151,24.555c-16.718,17.241-41.796,22.988-64.261,14.106l0,0
		c-8.359-2.612-15.673-7.837-21.943-14.106c-11.494-12.016-18.286-27.69-17.763-44.408c0.522-8.882,2.612-17.763,6.792-26.122
		L319.869,78.428z M243.592,188.665c0.522,19.331,8.359,37.094,21.943,50.678c6.269,6.269,13.584,11.494,21.943,15.151
		c-0.522,39.184-31.869,70.531-71.053,70.008c-39.184-0.522-70.531-31.869-70.008-71.053c0.522-38.661,31.869-70.008,70.531-70.008
		C226.351,183.441,235.233,185.008,243.592,188.665z M216.947,361.073c-80.457,0.522-155.69-39.706-199.575-107.102
		c43.886-67.396,119.118-107.625,199.575-107.625c11.494,0,23.51,1.045,35.004,2.612l0,0c-3.657,7.314-6.269,15.151-7.837,22.988
		c-8.882-2.612-17.763-4.18-27.167-4.18c-47.543,0-86.204,38.139-86.727,85.682c0,47.543,38.139,86.204,85.682,86.727
		c45.453,0,83.069-35.004,86.204-80.457c5.747,1.045,11.494,2.09,17.241,2.09c20.375,0,39.706-8.359,53.812-22.988
		c6.269-5.747,10.971-12.539,14.629-20.375c10.449,10.971,19.853,22.988,28.212,35.526
		C372.637,321.367,297.404,361.596,216.947,361.073z"/>
	<path style="fill:#083863;" d="M339.2,227.849c-2.612,0-4.702-1.045-6.269-3.135c-2.612-3.657-2.09-8.359,1.567-10.971
		c11.494-9.404,13.584-26.122,4.702-37.616c-2.612-3.657-2.09-8.359,1.567-10.971c3.135-2.612,8.359-2.09,10.971,1.045
		c14.106,18.286,10.971,44.931-7.837,59.559l0,0C342.857,227.326,340.767,227.849,339.2,227.849z"/>
</g>
<g>
</g>
<g>
</g>
<g>
</g>
<g>
</g>
<g>
</g>
<g>
</g>
<g>
</g>
<g>
</g>
<g>
</g>
<g>
</g>
<g>
</g>
<g>
</g>
<g>
</g>
<g>
</g>
<g>
</g>
</svg>
