<?xml version="1.0" encoding="iso-8859-1"?>
<!-- Generator: Adobe Illustrator 19.0.0, SVG Export Plug-In . SVG Version: 6.00 Build 0)  -->
<svg version="1.1" id="Capa_1" xmlns="http://www.w3.org/2000/svg" xmlns:xlink="http://www.w3.org/1999/xlink" x="0px" y="0px"
	 viewBox="0 0 433.653 433.653" style="enable-background:new 0 0 433.653 433.653;" xml:space="preserve">
<g>
	<g>
		<path style="fill:#00EFD1;" d="M407.008,71.063l-72.098,72.098c18.394,22.258,16.809,54.863-3.657,75.233
			c-22.169,21.842-57.766,21.842-79.935,0c-6.888-7.011-11.916-15.631-14.629-25.078c-9.502-2.583-18.153-7.629-25.078-14.629
			c-21.842-22.169-21.842-57.766,0-79.935c20.26-20.711,53.059-22.305,75.233-3.657l72.098-72.098L407.008,71.063z"/>
		<path style="fill:#00EFD1;" d="M195.416,274.296c22.544,21.514,23.378,57.231,1.864,79.775
			c-20.734,21.726-54.853,23.404-77.619,3.817l-63.739,64.261L7.857,374.083l64.261-63.739
			c-19.587-24.237-15.818-59.764,8.419-79.351s59.764-15.818,79.351,8.419c4.825,5.97,8.381,12.862,10.45,20.254
			C179.785,262.38,188.405,267.408,195.416,274.296z"/>
	</g>
	<g>
		<path style="fill:#083863;" d="M55.922,429.986c-2.183-0.086-4.246-1.024-5.747-2.612L2.11,379.83
			c-2.813-3.315-2.813-8.179,0-11.494L61.669,309.3c-16.356-25.478-12.885-58.886,8.359-80.457
			c12.057-12.05,28.407-18.815,45.453-18.808l0,0c17.046-0.007,33.396,6.758,45.453,18.808c7.007,6.901,12.364,15.294,15.673,24.555
			c9.261,3.309,17.655,8.667,24.555,15.673c25.008,25.183,24.866,65.871-0.317,90.879c-21.425,21.276-54.774,24.766-80.14,8.387
			l-59.559,59.037C59.843,428.932,57.951,429.878,55.922,429.986z M18.828,374.083l37.094,37.094l58.514-59.037
			c2.975-2.661,7.474-2.661,10.449,0c19.284,15.74,47.394,14.153,64.784-3.657c18.899-18.228,19.444-48.325,1.216-67.225
			c-0.398-0.413-0.803-0.818-1.216-1.216c-5.821-6.108-13.245-10.453-21.42-12.539c-2.731-0.875-4.872-3.016-5.747-5.747
			c-5.523-21.396-24.924-36.27-47.02-36.049l0,0c-12.754-0.043-24.99,5.04-33.959,14.106c-17.647,17.672-19.221,45.774-3.657,65.306
			c2.744,2.964,2.566,7.592-0.398,10.336c-0.041,0.038-0.083,0.076-0.125,0.113L18.828,374.083z"/>
		<path style="fill:#083863;" d="M291.024,242.949c-17.012-0.16-33.302-6.901-45.453-18.808
			c-6.677-7.063-11.833-15.42-15.151-24.555c-9.32-3.188-17.74-8.562-24.555-15.673c-25.008-25.183-24.866-65.871,0.317-90.879
			c21.425-21.276,54.774-24.766,80.14-8.387l67.396-67.396c3.047-2.987,7.924-2.987,10.971,0l48.065,48.065
			c1.139,1.53,1.859,3.331,2.09,5.224c-0.138,2.075-0.863,4.068-2.09,5.747l-67.396,67.396c19.048,30.287,9.937,70.281-20.35,89.329
			c-10.035,6.311-21.609,9.748-33.462,9.936H291.024z M251.318,89.871c-13.024-0.11-25.51,5.187-34.482,14.629
			c-18.794,18.943-18.794,49.498,0,68.441c6.016,6.125,13.611,10.465,21.943,12.539c2.613,1.062,4.685,3.134,5.747,5.747
			c2.074,8.332,6.413,15.926,12.539,21.943c9.035,8.969,21.229,14.035,33.959,14.106l0,0c12.9,0.009,25.287-5.058,34.482-14.106
			c17.97-17.596,19.336-46.07,3.135-65.306c-2.296-3.175-2.079-7.519,0.522-10.449l66.873-66.873l-37.094-36.571l-66.351,66.351
			c-2.676,3.026-7.298,3.311-10.324,0.635c-0.042-0.037-0.083-0.075-0.125-0.113C273.445,93.732,262.552,89.855,251.318,89.871z"/>
		<path style="fill:#083863;" d="M425.816,280.043h-54.335c-4.328,0-7.837-3.509-7.837-7.837c0-4.328,3.509-7.837,7.837-7.837
			h54.335c4.328,0,7.837,3.509,7.837,7.837C433.653,276.534,430.144,280.043,425.816,280.043z"/>
		<path style="fill:#083863;" d="M66.894,160.402H12.559c-4.328,0-7.837-3.509-7.837-7.837s3.509-7.837,7.837-7.837h54.335
			c4.328,0,7.837,3.509,7.837,7.837S71.222,160.402,66.894,160.402z"/>
		<path style="fill:#083863;" d="M153.098,73.675c-4.328,0-7.837-3.509-7.837-7.837V11.504c0-4.328,3.509-7.837,7.837-7.837
			c4.328,0,7.837,3.509,7.837,7.837v54.335c0.3,4.028-2.723,7.537-6.752,7.837C153.822,73.702,153.459,73.702,153.098,73.675z"/>
		<path style="fill:#083863;" d="M273.261,421.104c-4.328,0-7.837-3.509-7.837-7.837v-54.335c0-4.328,3.509-7.837,7.837-7.837
			s7.837,3.509,7.837,7.837v54.335C281.098,417.595,277.589,421.104,273.261,421.104z"/>
		<path style="fill:#083863;" d="M91.449,98.23c-2.12,0.11-4.193-0.644-5.747-2.09L47.563,57.479
			c-3.137-2.903-3.369-7.784-0.522-10.971c3.224-3.052,8.27-3.052,11.494,0l38.139,38.139c3.052,3.224,3.052,8.27,0,11.494
			C95.316,97.56,93.41,98.322,91.449,98.23z"/>
		<path style="fill:#083863;" d="M362.077,368.859c-2.12,0.11-4.193-0.644-5.747-2.09l-38.139-38.661
			c-2.597-3.462-1.895-8.375,1.567-10.971c2.786-2.09,6.618-2.09,9.404,0l38.661,38.661c2.529,3.22,2.529,7.751,0,10.971
			C366.271,368.215,364.197,368.969,362.077,368.859z"/>
	</g>
</g>
<g>
</g>
<g>
</g>
<g>
</g>
<g>
</g>
<g>
</g>
<g>
</g>
<g>
</g>
<g>
</g>
<g>
</g>
<g>
</g>
<g>
</g>
<g>
</g>
<g>
</g>
<g>
</g>
<g>
</g>
</svg>
