<?xml version="1.0"?>
<svg xmlns="http://www.w3.org/2000/svg" xmlns:xlink="http://www.w3.org/1999/xlink" version="1.1" id="Capa_1" x="0px" y="0px" viewBox="0 0 465.502 465.502" style="enable-background:new 0 0 465.502 465.502;" xml:space="preserve" width="512px" height="512px"><g><g>
	<g>
		<path d="M197.514,107.118c-1.6-1.6-4-2.4-6.4-1.6h-33.6l32-35.2l3.2-3.2l1.6-2.4c0.8-0.8,0.8-1.6,1.6-2.4c0-0.8,0.8-1.6,0.8-3.2    c0-2.4-0.8-4.8-3.2-5.6c-2.4-1.6-5.6-1.6-8-1.6h-40c-2.4,0-4,0.8-5.6,1.6c-1.6,0.8-2.4,3.2-2.4,4.8c0,2.4,0.8,4,2.4,4.8    c2.4,0.8,5.6,0.8,8,0.8h25.6c-0.8,1.6-2.4,3.2-4,5.6l-6.4,7.2l-8.8,9.6l-10.4,11.2c-3.2,4-5.6,6.4-7.2,8c-2.4,3.2-2.4,8,0.8,10.4    c2.4,1.6,4.8,2.4,7.2,2.4h46.4c2.4,0,4.8-0.8,6.4-1.6c1.6-0.8,2.4-3.2,2.4-4.8C199.914,110.318,199.114,107.918,197.514,107.118z" data-original="#000000" class="active-path" data-old_color="#000000" fill="#08355E"/>
	</g>
</g><g>
	<g>
		<path d="M268.714,146.318c-1.6-0.8-3.2-1.6-4.8-1.6h-27.2l25.6-28l2.4-2.4l1.6-1.6c0.8-0.8,0.8-1.6,0.8-1.6c0-0.8,0.8-1.6,0.8-2.4    c0-1.6-0.8-4-2.4-4.8c-2.4-0.8-4.8-1.6-6.4-1.6h-32c-1.6,0-3.2,0.8-4.8,1.6c-0.8,0.8-1.6,2.4-1.6,4c0,2.4,0.8,3.2,2.4,4    c2.4,0.8,4,0.8,6.4,0.8h19.2c-0.8,0.8-1.6,2.4-3.2,4l-4.8,6.4l-7.2,8l-8,8.8c-3.2,3.2-4.8,5.6-5.6,6.4c-1.6,2.4-1.6,5.6,0.8,8    c1.6,1.6,4,1.6,5.6,1.6h37.6c1.6,0,3.2,0,4.8-1.6c0.8-0.8,1.6-2.4,1.6-4C270.314,148.718,269.514,147.118,268.714,146.318z" data-original="#000000" class="active-path" data-old_color="#000000" fill="#08355E"/>
	</g>
</g><g>
	<g>
		<path d="M351.914,103.118c-1.6-1.6-4-2.4-6.4-1.6h-33.6l32-35.2l3.2-3.2l1.6-2.4c0.8-0.8,0.8-1.6,1.6-2.4c0-0.8,0.8-1.6,0.8-3.2    c0-2.4-0.8-4.8-3.2-5.6c-2.4-1.6-5.6-1.6-8-1.6h-40c-2.4,0-4,0.8-5.6,1.6c-1.6,0.8-2.4,3.2-2.4,4.8c0,2.4,0.8,4,2.4,4.8    c2.4,0.8,5.6,0.8,8,0.8h25.6c-0.8,1.6-2.4,3.2-4,5.6l-6.4,6.4l-8.8,9.6l-10.4,12c-3.2,4-5.6,6.4-7.2,8c-2.4,3.2-2.4,8,0.8,10.4    c2.4,1.6,4.8,2.4,7.2,2.4h46.4c2.4,0,4.8-0.8,6.4-1.6c1.6-0.8,2.4-3.2,2.4-4.8C354.314,106.318,353.514,103.918,351.914,103.118z" data-original="#000000" class="active-path" data-old_color="#000000" fill="#08355E"/>
	</g>
</g><g>
	<g>
		<path d="M407.914,238.318l-220.8-36.8c-5.6-0.8-11.2-0.8-16.8-0.8l-57.6-48c-29.6-29.6-75.2-20-97.6,9.6    c-20.8,28-22.4,62.4,9.6,93.6l169.6,145.6c12,10.4,28,16.8,44,16h5.6c32-2.4,57.6-26.4,62.4-57.6l80,13.6    c37.6,6.4,72-19.2,78.4-56C470.314,279.918,445.514,244.718,407.914,238.318z M287.114,234.318l-9.6,59.2l-87.2-75.2    L287.114,234.318z M34.314,243.118c-20-19.2-24-50.4-5.6-72.8c18.4-21.6,52-24.8,73.6-5.6l79.2,67.2l-68,79.2L34.314,243.118z     M278.314,383.918c-18.4,21.6-52,24.8-73.6,5.6l-79.2-67.2l68-79.2l79.2,68C294.314,328.718,296.714,362.318,278.314,383.918z     M447.914,314.318c-4.8,28.8-31.2,48-60,43.2l-81.6-13.6c-0.8-13.6-6.4-26.4-15.2-36.8l11.2-69.6l102.4,16.8    C433.514,259.118,452.714,286.318,447.914,314.318z" data-original="#000000" class="active-path" data-old_color="#000000" fill="#08355E"/>
	</g>
</g></g> </svg>
