<svg width="175" height="128" viewBox="0 0 175 128" fill="none" xmlns="http://www.w3.org/2000/svg">
<path d="M65.695 51.92L66.575 42.96H66.255L62.815 50.72L47.215 75.52H44.815L28.415 50.64L25.135 43.04H24.735L26.015 51.84V88H18.495V32H24.495L43.455 60.56L46.415 66.64H46.575L49.375 60.4L67.375 32H73.695V88H65.695V51.92ZM127.548 85.6C125.788 86.88 123.548 87.76 120.828 88.24C118.108 88.7733 115.228 89.04 112.188 89.04C108.615 89.04 105.201 88.48 101.948 87.36C98.7481 86.1867 95.9215 84.4267 93.4681 82.08C91.0148 79.68 89.0681 76.6667 87.6281 73.04C86.1881 69.36 85.4681 65.0133 85.4681 60C85.4681 54.7733 86.2681 50.32 87.8681 46.64C89.4681 42.96 91.5481 39.9733 94.1081 37.68C96.6681 35.3333 99.5481 33.6267 102.748 32.56C105.948 31.4933 109.121 30.96 112.268 30.96C115.788 30.96 118.668 31.1467 120.908 31.52C123.148 31.8933 125.041 32.3733 126.588 32.96L124.828 39.84C122.215 38.6133 118.241 38 112.908 38C110.508 38 108.161 38.4 105.868 39.2C103.628 39.9467 101.601 41.2 99.7881 42.96C98.0281 44.6667 96.6148 46.9333 95.5481 49.76C94.4815 52.5333 93.9481 55.9467 93.9481 60C93.9481 63.6267 94.4548 66.8267 95.4681 69.6C96.4815 72.32 97.8681 74.6133 99.6281 76.48C101.441 78.2933 103.548 79.68 105.948 80.64C108.401 81.5467 111.068 82 113.948 82C116.561 82 118.828 81.76 120.748 81.28C122.668 80.8 124.295 80.1867 125.628 79.44L127.548 85.6ZM142.67 37.28H136.27V32H157.07V37.28H150.67V82.72H157.07V88H136.27V82.72H142.67V37.28Z" fill="black"/>
<path d="M37.9224 101.54L38.1024 99.65H38.0124L37.3284 101.378L34.0524 107.066H33.6024L30.1284 101.36L29.4804 99.65H29.3904L29.6424 101.522V110H28.2384V97.4H29.3544L33.2964 103.844L33.8904 105.248H33.9264L34.4844 103.808L38.2464 97.4H39.4164V110H37.9224V101.54ZM49.8927 109.28C49.5327 109.568 49.0767 109.796 48.5247 109.964C47.9847 110.132 47.4087 110.216 46.7967 110.216C46.1127 110.216 45.5187 110.108 45.0147 109.892C44.5107 109.664 44.0967 109.346 43.7727 108.938C43.4487 108.518 43.2087 108.02 43.0527 107.444C42.8967 106.868 42.8187 106.22 42.8187 105.5C42.8187 103.964 43.1607 102.794 43.8447 101.99C44.5287 101.186 45.5067 100.784 46.7787 100.784C47.1867 100.784 47.5947 100.832 48.0027 100.928C48.4107 101.012 48.7767 101.18 49.1007 101.432C49.4247 101.684 49.6887 102.044 49.8927 102.512C50.0967 102.968 50.1987 103.574 50.1987 104.33C50.1987 104.726 50.1627 105.164 50.0907 105.644H44.3127C44.3127 106.172 44.3667 106.64 44.4747 107.048C44.5827 107.456 44.7507 107.804 44.9787 108.092C45.2067 108.368 45.5007 108.584 45.8607 108.74C46.2327 108.884 46.6827 108.956 47.2107 108.956C47.6187 108.956 48.0267 108.884 48.4347 108.74C48.8427 108.596 49.1487 108.428 49.3527 108.236L49.8927 109.28ZM46.7967 102.044C46.0887 102.044 45.5187 102.23 45.0867 102.602C44.6667 102.974 44.4147 103.61 44.3307 104.51H48.7947C48.7947 103.598 48.6207 102.962 48.2727 102.602C47.9247 102.23 47.4327 102.044 46.7967 102.044ZM60.3653 106.904C60.3653 107.516 60.3713 108.074 60.3833 108.578C60.3953 109.07 60.4493 109.556 60.5453 110.036H59.5733L59.2133 108.758H59.1413C58.9013 109.178 58.5533 109.526 58.0973 109.802C57.6413 110.078 57.1073 110.216 56.4953 110.216C55.2953 110.216 54.4013 109.838 53.8133 109.082C53.2373 108.326 52.9493 107.144 52.9493 105.536C52.9493 104 53.3093 102.836 54.0293 102.044C54.7613 101.24 55.7633 100.838 57.0353 100.838C57.4793 100.838 57.8273 100.862 58.0793 100.91C58.3433 100.958 58.6253 101.036 58.9253 101.144V97.4H60.3653V106.904ZM56.7293 108.956C57.3413 108.956 57.8273 108.8 58.1873 108.488C58.5473 108.164 58.7933 107.678 58.9253 107.03V102.566C58.7093 102.398 58.4633 102.278 58.1873 102.206C57.9113 102.134 57.5453 102.098 57.0893 102.098C56.2613 102.098 55.6133 102.374 55.1453 102.926C54.6773 103.466 54.4433 104.336 54.4433 105.536C54.4433 106.028 54.4793 106.484 54.5513 106.904C54.6353 107.324 54.7673 107.684 54.9473 107.984C55.1273 108.284 55.3613 108.524 55.6493 108.704C55.9493 108.872 56.3093 108.956 56.7293 108.956ZM64.4349 101H65.8749V110H64.4349V101ZM64.1289 98.264C64.1289 97.988 64.2189 97.754 64.3989 97.562C64.5909 97.358 64.8309 97.256 65.1189 97.256C65.4069 97.256 65.6529 97.358 65.8569 97.562C66.0609 97.754 66.1629 97.988 66.1629 98.264C66.1629 98.54 66.0609 98.768 65.8569 98.948C65.6529 99.128 65.4069 99.218 65.1189 99.218C64.8309 99.218 64.5909 99.128 64.3989 98.948C64.2189 98.768 64.1289 98.54 64.1289 98.264ZM76.0733 109.406C75.7133 109.67 75.2873 109.868 74.7953 110C74.3033 110.144 73.7873 110.216 73.2473 110.216C72.5513 110.216 71.9633 110.108 71.4833 109.892C71.0033 109.664 70.6073 109.346 70.2953 108.938C69.9953 108.518 69.7733 108.02 69.6293 107.444C69.4973 106.856 69.4313 106.208 69.4313 105.5C69.4313 103.976 69.7673 102.812 70.4393 102.008C71.1113 101.192 72.0773 100.784 73.3373 100.784C73.9133 100.784 74.3993 100.832 74.7953 100.928C75.2033 101.012 75.5693 101.138 75.8933 101.306L75.4793 102.548C75.2033 102.392 74.8973 102.272 74.5613 102.188C74.2253 102.092 73.8653 102.044 73.4813 102.044C71.7773 102.044 70.9253 103.196 70.9253 105.5C70.9253 105.956 70.9673 106.394 71.0513 106.814C71.1473 107.222 71.2973 107.588 71.5013 107.912C71.7173 108.224 71.9933 108.476 72.3293 108.668C72.6773 108.86 73.1033 108.956 73.6073 108.956C74.0393 108.956 74.4233 108.89 74.7593 108.758C75.1073 108.626 75.3893 108.476 75.6053 108.308L76.0733 109.406ZM78.9024 101.666C79.3584 101.39 79.8864 101.186 80.4864 101.054C81.0984 100.922 81.7344 100.856 82.3944 100.856C83.0184 100.856 83.5164 100.94 83.8884 101.108C84.2724 101.276 84.5604 101.498 84.7524 101.774C84.9564 102.038 85.0884 102.332 85.1484 102.656C85.2204 102.98 85.2564 103.304 85.2564 103.628C85.2564 104.348 85.2384 105.05 85.2024 105.734C85.1664 106.418 85.1484 107.066 85.1484 107.678C85.1484 108.122 85.1664 108.542 85.2024 108.938C85.2384 109.334 85.3044 109.7 85.4004 110.036H84.3384L83.9604 108.776H83.8704C83.7624 108.944 83.6244 109.112 83.4564 109.28C83.3004 109.436 83.1084 109.58 82.8804 109.712C82.6524 109.832 82.3884 109.934 82.0884 110.018C81.7884 110.102 81.4464 110.144 81.0624 110.144C80.6784 110.144 80.3184 110.084 79.9824 109.964C79.6584 109.844 79.3764 109.676 79.1364 109.46C78.8964 109.232 78.7044 108.962 78.5604 108.65C78.4284 108.338 78.3624 107.984 78.3624 107.588C78.3624 107.06 78.4704 106.622 78.6864 106.274C78.9024 105.914 79.2024 105.632 79.5864 105.428C79.9824 105.212 80.4504 105.062 80.9904 104.978C81.5424 104.882 82.1484 104.834 82.8084 104.834C82.9764 104.834 83.1384 104.834 83.2944 104.834C83.4624 104.834 83.6304 104.846 83.7984 104.87C83.8344 104.51 83.8524 104.186 83.8524 103.898C83.8524 103.238 83.7204 102.776 83.4564 102.512C83.1924 102.248 82.7124 102.116 82.0164 102.116C81.8124 102.116 81.5904 102.134 81.3504 102.17C81.1224 102.194 80.8824 102.236 80.6304 102.296C80.3904 102.344 80.1564 102.41 79.9284 102.494C79.7124 102.566 79.5204 102.65 79.3524 102.746L78.9024 101.666ZM81.4584 108.884C81.7944 108.884 82.0944 108.842 82.3584 108.758C82.6224 108.662 82.8504 108.548 83.0424 108.416C83.2344 108.272 83.3904 108.116 83.5104 107.948C83.6424 107.78 83.7384 107.618 83.7984 107.462V105.968C83.6304 105.956 83.4564 105.95 83.2764 105.95C83.1084 105.938 82.9404 105.932 82.7724 105.932C82.4004 105.932 82.0344 105.956 81.6744 106.004C81.3264 106.04 81.0144 106.118 80.7384 106.238C80.4744 106.346 80.2584 106.502 80.0904 106.706C79.9344 106.898 79.8564 107.144 79.8564 107.444C79.8564 107.864 80.0064 108.212 80.3064 108.488C80.6064 108.752 80.9904 108.884 81.4584 108.884ZM93.2141 102.386C92.8541 102.266 92.5121 102.206 92.1881 102.206C91.6721 102.206 91.2641 102.35 90.9641 102.638C90.6641 102.914 90.4781 103.268 90.4061 103.7V110H88.9661V101H89.9741L90.2441 102.098H90.3161C90.5441 101.69 90.8141 101.378 91.1261 101.162C91.4501 100.934 91.8581 100.82 92.3501 100.82C92.6981 100.82 93.0881 100.88 93.5201 101L93.2141 102.386ZM102.643 109.28C102.283 109.568 101.827 109.796 101.275 109.964C100.735 110.132 100.159 110.216 99.5473 110.216C98.8633 110.216 98.2693 110.108 97.7653 109.892C97.2613 109.664 96.8473 109.346 96.5233 108.938C96.1993 108.518 95.9593 108.02 95.8033 107.444C95.6473 106.868 95.5693 106.22 95.5693 105.5C95.5693 103.964 95.9113 102.794 96.5953 101.99C97.2793 101.186 98.2573 100.784 99.5293 100.784C99.9373 100.784 100.345 100.832 100.753 100.928C101.161 101.012 101.527 101.18 101.851 101.432C102.175 101.684 102.439 102.044 102.643 102.512C102.847 102.968 102.949 103.574 102.949 104.33C102.949 104.726 102.913 105.164 102.841 105.644H97.0633C97.0633 106.172 97.1173 106.64 97.2253 107.048C97.3333 107.456 97.5013 107.804 97.7293 108.092C97.9573 108.368 98.2513 108.584 98.6113 108.74C98.9833 108.884 99.4333 108.956 99.9613 108.956C100.369 108.956 100.777 108.884 101.185 108.74C101.593 108.596 101.899 108.428 102.103 108.236L102.643 109.28ZM99.5473 102.044C98.8393 102.044 98.2693 102.23 97.8373 102.602C97.4173 102.974 97.1653 103.61 97.0813 104.51H101.545C101.545 103.598 101.371 102.962 101.023 102.602C100.675 102.23 100.183 102.044 99.5473 102.044ZM106.69 97.4H108.184V110H106.69V97.4ZM118.21 110V104.87C118.21 103.934 118.072 103.232 117.796 102.764C117.532 102.284 117.04 102.044 116.32 102.044C115.684 102.044 115.156 102.218 114.736 102.566C114.328 102.902 114.04 103.328 113.872 103.844V110H112.432V101H113.44L113.71 102.098H113.782C114.07 101.714 114.454 101.402 114.934 101.162C115.426 100.91 116.008 100.784 116.68 100.784C117.172 100.784 117.604 100.844 117.976 100.964C118.348 101.072 118.654 101.27 118.894 101.558C119.146 101.846 119.332 102.236 119.452 102.728C119.584 103.208 119.65 103.82 119.65 104.564V110H118.21ZM130.178 106.904C130.178 107.516 130.184 108.074 130.196 108.578C130.208 109.07 130.262 109.556 130.358 110.036H129.386L129.026 108.758H128.954C128.714 109.178 128.366 109.526 127.91 109.802C127.454 110.078 126.92 110.216 126.308 110.216C125.108 110.216 124.214 109.838 123.626 109.082C123.05 108.326 122.762 107.144 122.762 105.536C122.762 104 123.122 102.836 123.842 102.044C124.574 101.24 125.576 100.838 126.848 100.838C127.292 100.838 127.64 100.862 127.892 100.91C128.156 100.958 128.438 101.036 128.738 101.144V97.4H130.178V106.904ZM126.542 108.956C127.154 108.956 127.64 108.8 128 108.488C128.36 108.164 128.606 107.678 128.738 107.03V102.566C128.522 102.398 128.276 102.278 128 102.206C127.724 102.134 127.358 102.098 126.902 102.098C126.074 102.098 125.426 102.374 124.958 102.926C124.49 103.466 124.256 104.336 124.256 105.536C124.256 106.028 124.292 106.484 124.364 106.904C124.448 107.324 124.58 107.684 124.76 107.984C124.94 108.284 125.174 108.524 125.462 108.704C125.762 108.872 126.122 108.956 126.542 108.956ZM134.247 101H135.687V110H134.247V101ZM133.941 98.264C133.941 97.988 134.031 97.754 134.211 97.562C134.403 97.358 134.643 97.256 134.931 97.256C135.219 97.256 135.465 97.358 135.669 97.562C135.873 97.754 135.975 97.988 135.975 98.264C135.975 98.54 135.873 98.768 135.669 98.948C135.465 99.128 135.219 99.218 134.931 99.218C134.643 99.218 134.403 99.128 134.211 98.948C134.031 98.768 133.941 98.54 133.941 98.264ZM139.604 101.666C140.06 101.39 140.588 101.186 141.188 101.054C141.8 100.922 142.436 100.856 143.096 100.856C143.72 100.856 144.218 100.94 144.59 101.108C144.974 101.276 145.262 101.498 145.454 101.774C145.658 102.038 145.79 102.332 145.85 102.656C145.922 102.98 145.958 103.304 145.958 103.628C145.958 104.348 145.94 105.05 145.904 105.734C145.868 106.418 145.85 107.066 145.85 107.678C145.85 108.122 145.868 108.542 145.904 108.938C145.94 109.334 146.006 109.7 146.102 110.036H145.04L144.662 108.776H144.572C144.464 108.944 144.326 109.112 144.158 109.28C144.002 109.436 143.81 109.58 143.582 109.712C143.354 109.832 143.09 109.934 142.79 110.018C142.49 110.102 142.148 110.144 141.764 110.144C141.38 110.144 141.02 110.084 140.684 109.964C140.36 109.844 140.078 109.676 139.838 109.46C139.598 109.232 139.406 108.962 139.262 108.65C139.13 108.338 139.064 107.984 139.064 107.588C139.064 107.06 139.172 106.622 139.388 106.274C139.604 105.914 139.904 105.632 140.288 105.428C140.684 105.212 141.152 105.062 141.692 104.978C142.244 104.882 142.85 104.834 143.51 104.834C143.678 104.834 143.84 104.834 143.996 104.834C144.164 104.834 144.332 104.846 144.5 104.87C144.536 104.51 144.554 104.186 144.554 103.898C144.554 103.238 144.422 102.776 144.158 102.512C143.894 102.248 143.414 102.116 142.718 102.116C142.514 102.116 142.292 102.134 142.052 102.17C141.824 102.194 141.584 102.236 141.332 102.296C141.092 102.344 140.858 102.41 140.63 102.494C140.414 102.566 140.222 102.65 140.054 102.746L139.604 101.666ZM142.16 108.884C142.496 108.884 142.796 108.842 143.06 108.758C143.324 108.662 143.552 108.548 143.744 108.416C143.936 108.272 144.092 108.116 144.212 107.948C144.344 107.78 144.44 107.618 144.5 107.462V105.968C144.332 105.956 144.158 105.95 143.978 105.95C143.81 105.938 143.642 105.932 143.474 105.932C143.102 105.932 142.736 105.956 142.376 106.004C142.028 106.04 141.716 106.118 141.44 106.238C141.176 106.346 140.96 106.502 140.792 106.706C140.636 106.898 140.558 107.144 140.558 107.444C140.558 107.864 140.708 108.212 141.008 108.488C141.308 108.752 141.692 108.884 142.16 108.884Z" fill="black"/>
</svg>
