<svg width="153" height="103" viewBox="0 0 153 103" fill="none" xmlns="http://www.w3.org/2000/svg">
<path fill-rule="evenodd" clip-rule="evenodd" d="M91.9793 66.2871C95.7635 62.87 97.9521 57.9845 98.5451 51.6306H96.2577C95.6646 57.448 93.702 61.811 90.3697 64.7197C87.2109 67.5006 82.8648 68.9521 77.3314 69.0744V10.2961C82.8372 10.4213 87.1692 11.901 90.3273 14.7352C93.6314 17.6721 95.6082 21.9787 96.2577 27.6549H98.5451C97.9521 21.3292 95.7494 16.472 91.937 13.0832C88.1246 9.69439 82.9991 8 76.5604 8C72.155 8 68.2437 9.12959 64.8267 11.3888C61.4379 13.648 58.8257 16.8532 56.9902 21.0045C55.1546 25.1275 54.2368 29.8153 54.2368 35.0679V44.5989C54.2514 47.321 54.5125 49.8877 55.0202 52.2989L48.5267 67.1766L23.1532 8.84719H19.8915V70.523H22.1789V12.5325L47.6371 70.523H49.4586L55.9472 55.7411C56.2758 56.7305 56.6517 57.6902 57.0749 58.6199C58.9387 62.6865 61.5509 65.8352 64.9114 68.0662C68.3002 70.2689 72.1832 71.3702 76.5604 71.3702C83.0555 71.3702 88.1952 69.6758 91.9793 66.2871ZM57.4027 52.4252C57.7965 54.1132 58.3226 55.7121 58.9811 57.2221C60.619 60.9497 62.9629 63.8584 66.0128 65.9482C68.6916 67.7669 71.702 68.7941 75.0439 69.0301V12.236L57.4027 52.4252ZM56.73 48.3814L73.2479 10.5358C68.7612 11.2352 65.0222 13.4116 62.031 17.065C58.3598 21.5834 56.5242 27.6408 56.5242 35.2373V44.3023C56.5242 45.7081 56.5928 47.0678 56.73 48.3814ZM100.138 8.00309V12.5779H115.133V65.1464H100.138V69.6789H135.847V65.1464H120.386V12.5779H135.847V8.00309H100.138ZM22.6966 81.799L22.5014 83.8485V93.0227H24.1215V79.3591H22.8528L18.7732 86.308L18.1681 87.8695H18.1291L17.4849 86.347L13.2102 79.3591H12V93.0227H13.5225V83.829L13.2492 81.799H13.3468L14.0495 83.6533L17.8168 89.841H18.3048L21.8573 83.6729L22.599 81.799H22.6966ZM33.9987 92.9836C34.5972 92.8014 35.0917 92.5542 35.4821 92.2419L34.8965 91.1097C34.6753 91.318 34.3435 91.5001 33.9011 91.6563C33.4586 91.8124 33.0162 91.8905 32.5737 91.8905C32.0012 91.8905 31.5132 91.8124 31.1098 91.6563C30.7194 91.4871 30.4006 91.2529 30.1533 90.9536C29.9061 90.6413 29.7239 90.2639 29.6068 89.8215C29.4897 89.379 29.4311 88.8715 29.4311 88.299H35.6968C35.7749 87.7784 35.814 87.3035 35.814 86.874C35.814 86.0542 35.7033 85.3971 35.4821 84.9026C35.2609 84.3951 34.9746 84.0047 34.6233 83.7314C34.2719 83.4582 33.875 83.276 33.4326 83.1849C32.9902 83.0808 32.5477 83.0287 32.1053 83.0287C30.7259 83.0287 29.6653 83.4647 28.9236 84.3365C28.1819 85.2084 27.811 86.4771 27.811 88.1428C27.811 88.9236 27.8956 89.6263 28.0648 90.2509C28.2339 90.8755 28.4942 91.4156 28.8455 91.871C29.1969 92.3134 29.6458 92.6583 30.1924 92.9055C30.7389 93.1398 31.3831 93.2569 32.1248 93.2569C32.7885 93.2569 33.4131 93.1658 33.9987 92.9836ZM30.2705 85.0002C30.7389 84.5968 31.357 84.3951 32.1248 84.3951C32.8145 84.3951 33.348 84.5968 33.7254 85.0002C34.1028 85.3906 34.2914 86.0803 34.2914 87.0692H29.4506C29.5417 86.0933 29.815 85.4036 30.2705 85.0002ZM46.8583 91.4806C46.8453 90.9341 46.8387 90.329 46.8387 89.6653V79.3591H45.2772V83.4191C44.9519 83.302 44.6461 83.2174 44.3598 83.1654C44.0865 83.1133 43.7091 83.0873 43.2277 83.0873C41.8483 83.0873 40.7617 83.5232 39.9679 84.3951C39.1871 85.2539 38.7968 86.5162 38.7968 88.1818C38.7968 89.9256 39.1091 91.2074 39.7337 92.0272C40.3713 92.847 41.3408 93.2569 42.6421 93.2569C43.3057 93.2569 43.8848 93.1072 44.3793 92.8079C44.8738 92.5086 45.2512 92.1313 45.5114 91.6758H45.5895L45.9799 93.0617H47.0339C46.9298 92.5412 46.8713 92.0142 46.8583 91.4806ZM44.4769 91.383C44.0865 91.7214 43.5595 91.8905 42.8958 91.8905C42.4404 91.8905 42.05 91.7994 41.7247 91.6173C41.4124 91.4221 41.1586 91.1618 40.9634 90.8365C40.7682 90.5112 40.6251 90.1208 40.534 89.6653C40.4559 89.2099 40.4169 88.7154 40.4169 88.1818C40.4169 86.8806 40.6706 85.9371 41.1781 85.3515C41.6856 84.7529 42.3883 84.4536 43.2862 84.4536C43.7807 84.4536 44.1776 84.4927 44.4769 84.5708C44.7762 84.6488 45.043 84.779 45.2772 84.9611V89.802C45.1341 90.5047 44.8673 91.0317 44.4769 91.383ZM52.8134 83.263H51.2518V93.0227H52.8134V83.263ZM51.2128 79.5348C51.0176 79.743 50.92 79.9967 50.92 80.296C50.92 80.5953 51.0176 80.8426 51.2128 81.0378C51.421 81.2329 51.6812 81.3305 51.9935 81.3305C52.3059 81.3305 52.5726 81.2329 52.7938 81.0378C53.0151 80.8426 53.1257 80.5953 53.1257 80.296C53.1257 79.9967 53.0151 79.743 52.7938 79.5348C52.5726 79.3135 52.3059 79.2029 51.9935 79.2029C51.6812 79.2029 51.421 79.3135 51.2128 79.5348ZM62.4867 93.0227C63.0203 92.8795 63.4822 92.6648 63.8726 92.3785L63.3651 91.1878C63.1309 91.37 62.8251 91.5327 62.4477 91.6758C62.0833 91.819 61.6669 91.8905 61.1985 91.8905C60.6519 91.8905 60.19 91.7864 59.8126 91.5782C59.4482 91.37 59.1489 91.0967 58.9147 90.7584C58.6935 90.4071 58.5308 90.0102 58.4267 89.5677C58.3356 89.1123 58.2901 88.6373 58.2901 88.1428C58.2901 85.6443 59.214 84.3951 61.0618 84.3951C61.4782 84.3951 61.8686 84.4471 62.233 84.5512C62.5974 84.6423 62.9292 84.7725 63.2285 84.9416L63.6774 83.5948C63.3261 83.4126 62.9292 83.276 62.4867 83.1849C62.0573 83.0808 61.5303 83.0287 60.9057 83.0287C59.5393 83.0287 58.4918 83.4712 57.7631 84.356C57.0343 85.2279 56.67 86.4902 56.67 88.1428C56.67 88.9106 56.7415 89.6133 56.8847 90.2509C57.0408 90.8755 57.2816 91.4156 57.6069 91.871C57.9452 92.3134 58.3747 92.6583 58.8952 92.9055C59.4157 93.1398 60.0533 93.2569 60.8081 93.2569C61.3937 93.2569 61.9532 93.1788 62.4867 93.0227ZM68.6582 83.3215C68.0076 83.4647 67.435 83.6859 66.9405 83.9852L67.4285 85.1563C67.6107 85.0522 67.8189 84.9611 68.0531 84.8831C68.3004 84.792 68.5541 84.7204 68.8144 84.6684C69.0876 84.6033 69.3479 84.5577 69.5951 84.5317C69.8554 84.4927 70.0961 84.4732 70.3174 84.4732C71.0721 84.4732 71.5926 84.6163 71.8789 84.9026C72.1652 85.1889 72.3083 85.6899 72.3083 86.4056C72.3083 86.7179 72.2888 87.0692 72.2498 87.4596C72.0676 87.4336 71.8854 87.4206 71.7032 87.4206H71.1762C70.4605 87.4206 69.8034 87.4726 69.2048 87.5767C68.6192 87.6678 68.1117 87.8305 67.6823 88.0647C67.2658 88.2859 66.9405 88.5918 66.7063 88.9821C66.472 89.3595 66.3549 89.8345 66.3549 90.4071C66.3549 90.8365 66.4265 91.2204 66.5696 91.5587C66.7258 91.897 66.934 92.1898 67.1943 92.4371C67.4545 92.6713 67.7603 92.8535 68.1117 92.9836C68.476 93.1137 68.8664 93.1788 69.2828 93.1788C69.6993 93.1788 70.0701 93.1333 70.3954 93.0422C70.7208 92.9511 71.0071 92.8405 71.2543 92.7103C71.5015 92.5672 71.7098 92.411 71.8789 92.2419C72.0611 92.0597 72.2107 91.8775 72.3279 91.6953H72.4255L72.8354 93.0617H73.987C73.8829 92.6973 73.8113 92.3004 73.7723 91.871C73.7333 91.4416 73.7137 90.9861 73.7137 90.5047C73.7137 89.841 73.7333 89.1383 73.7723 88.3966C73.8113 87.6548 73.8309 86.8936 73.8309 86.1128C73.8309 85.7614 73.7918 85.4101 73.7137 85.0587C73.6487 84.7074 73.5055 84.3886 73.2843 84.1023C73.0761 83.803 72.7638 83.5623 72.3474 83.3801C71.944 83.1979 71.4039 83.1068 70.7273 83.1068C70.0116 83.1068 69.3219 83.1784 68.6582 83.3215ZM70.6882 91.6758C70.402 91.7669 70.0766 91.8124 69.7123 91.8124C69.2048 91.8124 68.7883 91.6693 68.463 91.383C68.1377 91.0837 67.975 90.7064 67.975 90.2509C67.975 89.9256 68.0596 89.6588 68.2288 89.4506C68.411 89.2294 68.6452 89.0602 68.9315 88.9431C69.2308 88.813 69.5691 88.7284 69.9465 88.6893C70.3369 88.6373 70.7338 88.6113 71.1372 88.6113C71.3194 88.6113 71.5015 88.6178 71.6837 88.6308C71.8789 88.6308 72.0676 88.6373 72.2498 88.6503V90.2704C72.1847 90.4396 72.0806 90.6153 71.9375 90.7974C71.8073 90.9796 71.6382 91.1488 71.43 91.3049C71.2218 91.4481 70.9745 91.5717 70.6882 91.6758ZM81.3476 84.5708C81.699 84.5708 82.0699 84.6358 82.4603 84.766L82.7921 83.263C82.3236 83.1328 81.9007 83.0678 81.5233 83.0678C80.9898 83.0678 80.5474 83.1914 80.196 83.4386C79.8577 83.6729 79.5649 84.0112 79.3176 84.4536H79.2396L78.9468 83.263H77.8537V93.0227H79.4152V86.1909C79.4933 85.7224 79.695 85.3385 80.0203 85.0392C80.3457 84.7269 80.7881 84.5708 81.3476 84.5708ZM91.2019 92.9836C91.8005 92.8014 92.295 92.5542 92.6854 92.2419L92.0998 91.1097C91.8786 91.318 91.5467 91.5001 91.1043 91.6563C90.6619 91.8124 90.2194 91.8905 89.777 91.8905C89.2044 91.8905 88.7164 91.8124 88.313 91.6563C87.9226 91.4871 87.6038 91.2529 87.3566 90.9536C87.1093 90.6413 86.9271 90.2639 86.81 89.8215C86.6929 89.379 86.6344 88.8715 86.6344 88.299H92.9001C92.9782 87.7784 93.0172 87.3035 93.0172 86.874C93.0172 86.0542 92.9066 85.3971 92.6854 84.9026C92.4641 84.3951 92.1779 84.0047 91.8265 83.7314C91.4752 83.4582 91.0783 83.276 90.6358 83.1849C90.1934 83.0808 89.7509 83.0287 89.3085 83.0287C87.9291 83.0287 86.8686 83.4647 86.1268 84.3365C85.3851 85.2084 85.0142 86.4771 85.0142 88.1428C85.0142 88.9236 85.0988 89.6263 85.268 90.2509C85.4372 90.8755 85.6974 91.4156 86.0488 91.871C86.4001 92.3134 86.8491 92.6583 87.3956 92.9055C87.9422 93.1398 88.5863 93.2569 89.328 93.2569C89.9917 93.2569 90.6163 93.1658 91.2019 92.9836ZM87.4737 85.0002C87.9422 84.5968 88.5603 84.3951 89.328 84.3951C90.0177 84.3951 90.5512 84.5968 90.9286 85.0002C91.306 85.3906 91.4947 86.0803 91.4947 87.0692H86.6539C86.745 86.0933 87.0182 85.4036 87.4737 85.0002ZM98.6937 79.3591H97.0736V93.0227H98.6937V79.3591ZM109.566 87.4596V93.0227H111.128V87.1278C111.128 86.321 111.056 85.6573 110.913 85.1368C110.783 84.6033 110.581 84.1804 110.308 83.8681C110.048 83.5557 109.716 83.341 109.313 83.2239C108.909 83.0938 108.441 83.0287 107.907 83.0287C107.178 83.0287 106.547 83.1654 106.014 83.4386C105.493 83.6989 105.077 84.0372 104.765 84.4536H104.686L104.394 83.263H103.301V93.0227H104.862V86.347C105.044 85.7875 105.357 85.3255 105.799 84.9611C106.254 84.5838 106.827 84.3951 107.517 84.3951C108.298 84.3951 108.831 84.6553 109.117 85.1759C109.417 85.6834 109.566 86.4446 109.566 87.4596ZM122.564 91.4806C122.551 90.9341 122.544 90.329 122.544 89.6653V79.3591H120.983V83.4191C120.657 83.302 120.352 83.2174 120.065 83.1654C119.792 83.1133 119.415 83.0873 118.933 83.0873C117.554 83.0873 116.467 83.5232 115.673 84.3951C114.893 85.2539 114.502 86.5162 114.502 88.1818C114.502 89.9256 114.815 91.2074 115.439 92.0272C116.077 92.847 117.046 93.2569 118.348 93.2569C119.011 93.2569 119.59 93.1072 120.085 92.8079C120.579 92.5086 120.957 92.1313 121.217 91.6758H121.295L121.685 93.0617H122.739C122.635 92.5412 122.577 92.0142 122.564 91.4806ZM120.182 91.383C119.792 91.7214 119.265 91.8905 118.601 91.8905C118.146 91.8905 117.755 91.7994 117.43 91.6173C117.118 91.4221 116.864 91.1618 116.669 90.8365C116.474 90.5112 116.331 90.1208 116.239 89.6653C116.161 89.2099 116.122 88.7154 116.122 88.1818C116.122 86.8806 116.376 85.9371 116.884 85.3515C117.391 84.7529 118.094 84.4536 118.992 84.4536C119.486 84.4536 119.883 84.4927 120.182 84.5708C120.482 84.6488 120.748 84.779 120.983 84.9611V89.802C120.84 90.5047 120.573 91.0317 120.182 91.383ZM128.519 83.263H126.957V93.0227H128.519V83.263ZM126.918 79.5348C126.723 79.743 126.625 79.9967 126.625 80.296C126.625 80.5953 126.723 80.8426 126.918 81.0378C127.126 81.2329 127.387 81.3305 127.699 81.3305C128.011 81.3305 128.278 81.2329 128.499 81.0378C128.721 80.8426 128.831 80.5953 128.831 80.296C128.831 79.9967 128.721 79.743 128.499 79.5348C128.278 79.3135 128.011 79.2029 127.699 79.2029C127.387 79.2029 127.126 79.3135 126.918 79.5348ZM134.484 83.3215C133.833 83.4647 133.26 83.6859 132.766 83.9852L133.254 85.1563C133.436 85.0522 133.644 84.9611 133.878 84.8831C134.126 84.792 134.379 84.7204 134.64 84.6684C134.913 84.6033 135.173 84.5577 135.42 84.5317C135.681 84.4927 135.921 84.4732 136.143 84.4732C136.897 84.4732 137.418 84.6163 137.704 84.9026C137.991 85.1889 138.134 85.6899 138.134 86.4056C138.134 86.7179 138.114 87.0692 138.075 87.4596C137.893 87.4336 137.711 87.4206 137.529 87.4206H137.002C136.286 87.4206 135.629 87.4726 135.03 87.5767C134.444 87.6678 133.937 87.8305 133.508 88.0647C133.091 88.2859 132.766 88.5918 132.532 88.9821C132.297 89.3595 132.18 89.8345 132.18 90.4071C132.18 90.8365 132.252 91.2204 132.395 91.5587C132.551 91.897 132.759 92.1898 133.02 92.4371C133.28 92.6713 133.586 92.8535 133.937 92.9836C134.301 93.1137 134.692 93.1788 135.108 93.1788C135.525 93.1788 135.895 93.1333 136.221 93.0422C136.546 92.9511 136.832 92.8405 137.08 92.7103C137.327 92.5672 137.535 92.411 137.704 92.2419C137.886 92.0597 138.036 91.8775 138.153 91.6953H138.251L138.661 93.0617H139.812C139.708 92.6973 139.637 92.3004 139.598 91.871C139.559 91.4416 139.539 90.9861 139.539 90.5047C139.539 89.841 139.559 89.1383 139.598 88.3966C139.637 87.6548 139.656 86.8936 139.656 86.1128C139.656 85.7614 139.617 85.4101 139.539 85.0587C139.474 84.7074 139.331 84.3886 139.11 84.1023C138.901 83.803 138.589 83.5623 138.173 83.3801C137.769 83.1979 137.229 83.1068 136.553 83.1068C135.837 83.1068 135.147 83.1784 134.484 83.3215ZM136.514 91.6758C136.227 91.7669 135.902 91.8124 135.538 91.8124C135.03 91.8124 134.614 91.6693 134.288 91.383C133.963 91.0837 133.8 90.7064 133.8 90.2509C133.8 89.9256 133.885 89.6588 134.054 89.4506C134.236 89.2294 134.471 89.0602 134.757 88.9431C135.056 88.813 135.394 88.7284 135.772 88.6893C136.162 88.6373 136.559 88.6113 136.963 88.6113C137.145 88.6113 137.327 88.6178 137.509 88.6308C137.704 88.6308 137.893 88.6373 138.075 88.6503V90.2704C138.01 90.4396 137.906 90.6153 137.763 90.7974C137.633 90.9796 137.463 91.1488 137.255 91.3049C137.047 91.4481 136.8 91.5717 136.514 91.6758Z" fill="black"/>
</svg>
