<svg width="378" height="253" viewBox="0 0 378 253" fill="none" xmlns="http://www.w3.org/2000/svg">
<path d="M32.985 2.50555L108.026 175.013L183.318 2.50555H193.215V184.91H186.45V12.5278L110.782 184.91H105.395L30.1037 13.4047V184.91H23.3387V2.50555H32.985Z" fill="black"/>
<path d="M255.954 129.036C254.2 147.827 247.727 162.276 236.536 172.382C225.344 182.404 210.144 187.415 190.935 187.415C177.989 187.415 166.506 184.158 156.483 177.644C146.545 171.046 138.819 161.733 133.307 149.707C127.795 137.596 124.997 123.774 124.914 108.24V80.0523C124.914 64.5179 127.628 50.6539 133.057 38.4602C138.485 26.183 146.211 16.7037 156.233 10.0222C166.339 3.34073 177.906 0 190.935 0C209.977 0 225.135 5.0111 236.41 15.0333C247.685 25.0555 254.2 39.4207 255.954 58.1288H249.189C247.268 41.3416 241.422 28.605 231.65 19.9191C221.878 11.1497 208.307 6.76499 190.935 6.76499C173.229 6.76499 158.906 13.4465 147.965 26.8094C137.107 40.1723 131.679 58.087 131.679 80.5534V107.363C131.679 121.728 134.101 134.465 138.945 145.572C143.789 156.597 150.721 165.199 159.741 171.38C168.844 177.56 179.242 180.65 190.935 180.65C208.39 180.65 222.004 176.349 231.775 167.747C241.63 159.144 247.435 146.241 249.189 129.036H255.954Z" fill="black"/>
<path d="M260.664 2.50555V16.0355H305.012V171.505H260.664V184.91H366.273V171.505H320.547V16.0355H366.273V2.50555H260.664Z" fill="black"/>
<path d="M31.0576 225.127L31.6348 219.065H31.3462L29.1526 224.607L18.6461 242.849H17.2029L6.06142 224.549L3.98322 219.065H3.69458L4.50277 225.069V252.259H0V211.849H3.57912L16.2215 232.516L18.1265 237.019H18.242L20.0316 232.4L32.0967 211.849H35.849V252.259H31.0576V225.127Z" fill="black"/>
<path d="M69.4475 249.95C68.2929 250.873 66.8305 251.605 65.0602 252.143C63.3283 252.682 61.481 252.952 59.5183 252.952C57.3246 252.952 55.4196 252.605 53.8032 251.912C52.1869 251.181 50.8591 250.161 49.82 248.853C48.7809 247.506 48.0112 245.909 47.5109 244.061C47.0106 242.214 46.7604 240.136 46.7604 237.827C46.7604 232.901 47.8573 229.148 50.0509 226.57C52.2446 223.991 55.3811 222.702 59.4606 222.702C60.7691 222.702 62.0776 222.856 63.3861 223.164C64.6946 223.433 65.8684 223.972 66.9075 224.78C67.9466 225.589 68.7932 226.743 69.4475 228.244C70.1017 229.706 70.4289 231.65 70.4289 234.075C70.4289 235.345 70.3134 236.749 70.0825 238.289H51.5519C51.5519 239.982 51.725 241.483 52.0714 242.791C52.4178 244.1 52.9566 245.216 53.6878 246.14C54.419 247.025 55.3619 247.718 56.5165 248.218C57.7095 248.68 59.1527 248.911 60.846 248.911C62.1545 248.911 63.463 248.68 64.7715 248.218C66.08 247.756 67.0614 247.217 67.7156 246.601L69.4475 249.95ZM59.5183 226.743C57.2477 226.743 55.4196 227.34 54.0342 228.533C52.6872 229.726 51.879 231.765 51.6096 234.652H65.9261C65.9261 231.727 65.368 229.687 64.252 228.533C63.1359 227.34 61.558 226.743 59.5183 226.743Z" fill="black"/>
<path d="M103.034 242.33C103.034 244.292 103.053 246.082 103.092 247.698C103.13 249.276 103.304 250.835 103.612 252.374H100.494L99.3397 248.276H99.1088C98.339 249.623 97.223 250.739 95.7605 251.624C94.2981 252.509 92.5855 252.952 90.6228 252.952C86.7742 252.952 83.9071 251.739 82.0213 249.315C80.174 246.89 79.2504 243.099 79.2504 237.942C79.2504 233.016 80.4049 229.283 82.714 226.743C85.0616 224.165 88.2752 222.875 92.3546 222.875C93.7785 222.875 94.8946 222.952 95.7028 223.106C96.5495 223.26 97.4539 223.51 98.416 223.857V211.849H103.034V242.33ZM91.3732 248.911C93.336 248.911 94.8946 248.41 96.0492 247.41C97.2037 246.371 97.9927 244.812 98.416 242.734V228.417C97.7233 227.878 96.9343 227.494 96.0492 227.263C95.164 227.032 93.9902 226.916 92.5278 226.916C89.8723 226.916 87.7941 227.801 86.2932 229.572C84.7923 231.304 84.0418 234.094 84.0418 237.942C84.0418 239.52 84.1572 240.983 84.3882 242.33C84.6576 243.677 85.0809 244.831 85.6582 245.793C86.2354 246.755 86.9859 247.525 87.9096 248.102C88.8717 248.641 90.0262 248.911 91.3732 248.911Z" fill="black"/>
<path d="M116.086 223.395H120.704V252.259H116.086V223.395ZM115.104 214.62C115.104 213.735 115.393 212.985 115.97 212.369C116.586 211.715 117.356 211.387 118.279 211.387C119.203 211.387 119.992 211.715 120.646 212.369C121.3 212.985 121.628 213.735 121.628 214.62C121.628 215.505 121.3 216.237 120.646 216.814C119.992 217.391 119.203 217.68 118.279 217.68C117.356 217.68 116.586 217.391 115.97 216.814C115.393 216.237 115.104 215.505 115.104 214.62Z" fill="black"/>
<path d="M153.411 250.354C152.257 251.2 150.89 251.835 149.313 252.259C147.735 252.721 146.08 252.952 144.348 252.952C142.116 252.952 140.23 252.605 138.691 251.912C137.151 251.181 135.881 250.161 134.881 248.853C133.918 247.506 133.206 245.909 132.745 244.061C132.321 242.176 132.11 240.097 132.11 237.827C132.11 232.939 133.187 229.206 135.342 226.628C137.498 224.011 140.596 222.702 144.637 222.702C146.484 222.702 148.043 222.856 149.313 223.164C150.621 223.433 151.795 223.837 152.834 224.376L151.506 228.359C150.621 227.859 149.64 227.474 148.562 227.205C147.485 226.897 146.33 226.743 145.098 226.743C139.634 226.743 136.901 230.438 136.901 237.827C136.901 239.289 137.036 240.694 137.305 242.041C137.613 243.35 138.094 244.523 138.748 245.562C139.441 246.563 140.326 247.371 141.404 247.987C142.52 248.603 143.886 248.911 145.503 248.911C146.888 248.911 148.12 248.699 149.197 248.276C150.313 247.852 151.218 247.371 151.91 246.832L153.411 250.354Z" fill="black"/>
<path d="M162.484 225.531C163.947 224.646 165.64 223.991 167.564 223.568C169.527 223.145 171.567 222.933 173.684 222.933C175.685 222.933 177.282 223.202 178.475 223.741C179.707 224.28 180.63 224.992 181.246 225.877C181.9 226.724 182.324 227.667 182.516 228.706C182.747 229.745 182.862 230.784 182.862 231.823C182.862 234.132 182.805 236.384 182.689 238.577C182.574 240.771 182.516 242.849 182.516 244.812C182.516 246.236 182.574 247.583 182.689 248.853C182.805 250.123 183.016 251.297 183.324 252.374H179.918L178.706 248.333H178.417C178.071 248.872 177.628 249.411 177.09 249.95C176.589 250.45 175.973 250.912 175.242 251.335C174.511 251.72 173.664 252.047 172.702 252.317C171.74 252.586 170.643 252.721 169.412 252.721C168.18 252.721 167.026 252.528 165.948 252.143C164.909 251.759 164.005 251.22 163.235 250.527C162.465 249.796 161.849 248.93 161.388 247.929C160.964 246.929 160.753 245.793 160.753 244.523C160.753 242.83 161.099 241.425 161.792 240.309C162.484 239.155 163.447 238.25 164.678 237.596C165.948 236.903 167.449 236.422 169.181 236.153C170.951 235.845 172.895 235.691 175.011 235.691C175.55 235.691 176.07 235.691 176.57 235.691C177.109 235.691 177.648 235.729 178.186 235.806C178.302 234.652 178.36 233.613 178.36 232.689C178.36 230.572 177.936 229.091 177.09 228.244C176.243 227.397 174.703 226.974 172.471 226.974C171.817 226.974 171.105 227.032 170.335 227.147C169.604 227.224 168.834 227.359 168.026 227.551C167.257 227.705 166.506 227.917 165.775 228.186C165.082 228.417 164.466 228.687 163.928 228.994L162.484 225.531ZM170.682 248.68C171.759 248.68 172.721 248.545 173.568 248.276C174.415 247.968 175.146 247.602 175.762 247.179C176.378 246.717 176.878 246.217 177.263 245.678C177.686 245.139 177.994 244.619 178.186 244.119V239.328C177.648 239.289 177.09 239.27 176.512 239.27C175.973 239.232 175.435 239.212 174.896 239.212C173.703 239.212 172.529 239.289 171.375 239.443C170.258 239.559 169.258 239.809 168.373 240.194C167.526 240.54 166.833 241.04 166.294 241.695C165.794 242.31 165.544 243.099 165.544 244.061C165.544 245.408 166.025 246.525 166.987 247.41C167.949 248.256 169.181 248.68 170.682 248.68Z" fill="black"/>
<path d="M208.383 227.84C207.229 227.455 206.132 227.263 205.093 227.263C203.438 227.263 202.13 227.724 201.167 228.648C200.205 229.533 199.609 230.669 199.378 232.054V252.259H194.76V223.395H197.992L198.858 226.916H199.089C199.821 225.608 200.686 224.607 201.687 223.914C202.726 223.183 204.035 222.818 205.613 222.818C206.729 222.818 207.979 223.01 209.365 223.395L208.383 227.84Z" fill="black"/>
<path d="M238.624 249.95C237.469 250.873 236.007 251.605 234.237 252.143C232.505 252.682 230.657 252.952 228.695 252.952C226.501 252.952 224.596 252.605 222.98 251.912C221.363 251.181 220.035 250.161 218.996 248.853C217.957 247.506 217.188 245.909 216.687 244.061C216.187 242.214 215.937 240.136 215.937 237.827C215.937 232.901 217.034 229.148 219.227 226.57C221.421 223.991 224.557 222.702 228.637 222.702C229.945 222.702 231.254 222.856 232.562 223.164C233.871 223.433 235.045 223.972 236.084 224.78C237.123 225.589 237.97 226.743 238.624 228.244C239.278 229.706 239.605 231.65 239.605 234.075C239.605 235.345 239.49 236.749 239.259 238.289H220.728C220.728 239.982 220.901 241.483 221.248 242.791C221.594 244.1 222.133 245.216 222.864 246.14C223.595 247.025 224.538 247.718 225.693 248.218C226.886 248.68 228.329 248.911 230.022 248.911C231.331 248.911 232.639 248.68 233.948 248.218C235.256 247.756 236.238 247.217 236.892 246.601L238.624 249.95ZM228.695 226.743C226.424 226.743 224.596 227.34 223.211 228.533C221.864 229.726 221.055 231.765 220.786 234.652H235.102C235.102 231.727 234.544 229.687 233.428 228.533C232.312 227.34 230.734 226.743 228.695 226.743Z" fill="black"/>
<path d="M251.602 211.849H256.393V252.259H251.602V211.849Z" fill="black"/>
<path d="M288.548 252.259V235.806C288.548 232.805 288.106 230.553 287.221 229.052C286.374 227.513 284.796 226.743 282.487 226.743C280.447 226.743 278.754 227.301 277.407 228.417C276.099 229.495 275.175 230.861 274.636 232.516V252.259H270.018V223.395H273.251L274.117 226.916H274.347C275.271 225.685 276.503 224.684 278.042 223.914C279.62 223.106 281.486 222.702 283.642 222.702C285.219 222.702 286.605 222.895 287.798 223.279C288.991 223.626 289.972 224.261 290.742 225.184C291.55 226.108 292.147 227.359 292.532 228.937C292.955 230.476 293.167 232.439 293.167 234.825V252.259H288.548Z" fill="black"/>
<path d="M326.93 242.33C326.93 244.292 326.95 246.082 326.988 247.698C327.026 249.276 327.2 250.835 327.508 252.374H324.39L323.236 248.276H323.005C322.235 249.623 321.119 250.739 319.657 251.624C318.194 252.509 316.482 252.952 314.519 252.952C310.67 252.952 307.803 251.739 305.917 249.315C304.07 246.89 303.146 243.099 303.146 237.942C303.146 233.016 304.301 229.283 306.61 226.743C308.958 224.165 312.171 222.875 316.251 222.875C317.675 222.875 318.791 222.952 319.599 223.106C320.446 223.26 321.35 223.51 322.312 223.857V211.849H326.93V242.33ZM315.269 248.911C317.232 248.911 318.791 248.41 319.945 247.41C321.1 246.371 321.889 244.812 322.312 242.734V228.417C321.619 227.878 320.83 227.494 319.945 227.263C319.06 227.032 317.886 226.916 316.424 226.916C313.768 226.916 311.69 227.801 310.189 229.572C308.688 231.304 307.938 234.094 307.938 237.942C307.938 239.52 308.053 240.983 308.284 242.33C308.554 243.677 308.977 244.831 309.554 245.793C310.131 246.755 310.882 247.525 311.806 248.102C312.768 248.641 313.922 248.911 315.269 248.911Z" fill="black"/>
<path d="M339.982 223.395H344.6V252.259H339.982V223.395ZM339 214.62C339 213.735 339.289 212.985 339.866 212.369C340.482 211.715 341.252 211.387 342.175 211.387C343.099 211.387 343.888 211.715 344.542 212.369C345.196 212.985 345.524 213.735 345.524 214.62C345.524 215.505 345.196 216.237 344.542 216.814C343.888 217.391 343.099 217.68 342.175 217.68C341.252 217.68 340.482 217.391 339.866 216.814C339.289 216.237 339 215.505 339 214.62Z" fill="black"/>
<path d="M357.16 225.531C358.623 224.646 360.316 223.991 362.24 223.568C364.203 223.145 366.243 222.933 368.359 222.933C370.361 222.933 371.958 223.202 373.151 223.741C374.382 224.28 375.306 224.992 375.922 225.877C376.576 226.724 376.999 227.667 377.192 228.706C377.423 229.745 377.538 230.784 377.538 231.823C377.538 234.132 377.48 236.384 377.365 238.577C377.25 240.771 377.192 242.849 377.192 244.812C377.192 246.236 377.25 247.583 377.365 248.853C377.48 250.123 377.692 251.297 378 252.374H374.594L373.382 248.333H373.093C372.747 248.872 372.304 249.411 371.765 249.95C371.265 250.45 370.649 250.912 369.918 251.335C369.187 251.72 368.34 252.047 367.378 252.317C366.416 252.586 365.319 252.721 364.088 252.721C362.856 252.721 361.702 252.528 360.624 252.143C359.585 251.759 358.68 251.22 357.911 250.527C357.141 249.796 356.525 248.93 356.063 247.929C355.64 246.929 355.428 245.793 355.428 244.523C355.428 242.83 355.775 241.425 356.468 240.309C357.16 239.155 358.122 238.25 359.354 237.596C360.624 236.903 362.125 236.422 363.857 236.153C365.627 235.845 367.57 235.691 369.687 235.691C370.226 235.691 370.746 235.691 371.246 235.691C371.785 235.691 372.323 235.729 372.862 235.806C372.978 234.652 373.035 233.613 373.035 232.689C373.035 230.572 372.612 229.091 371.765 228.244C370.919 227.397 369.379 226.974 367.147 226.974C366.493 226.974 365.781 227.032 365.011 227.147C364.28 227.224 363.51 227.359 362.702 227.551C361.932 227.705 361.182 227.917 360.451 228.186C359.758 228.417 359.142 228.687 358.603 228.994L357.16 225.531ZM365.358 248.68C366.435 248.68 367.397 248.545 368.244 248.276C369.091 247.968 369.822 247.602 370.438 247.179C371.053 246.717 371.554 246.217 371.939 245.678C372.362 245.139 372.67 244.619 372.862 244.119V239.328C372.323 239.289 371.765 239.27 371.188 239.27C370.649 239.232 370.111 239.212 369.572 239.212C368.379 239.212 367.205 239.289 366.05 239.443C364.934 239.559 363.934 239.809 363.048 240.194C362.202 240.54 361.509 241.04 360.97 241.695C360.47 242.31 360.22 243.099 360.22 244.061C360.22 245.408 360.701 246.525 361.663 247.41C362.625 248.256 363.857 248.68 365.358 248.68Z" fill="black"/>
</svg>
